G04*
G04 #@! TF.GenerationSoftware,Altium Limited,Altium NEXUS,2.0.15 (191)*
G04*
G04 Layer_Color=16711935*
%FSLAX25Y25*%
%MOIN*%
G70*
G01*
G75*
%ADD64C,0.00984*%
%ADD231C,0.07874*%
D64*
X86094Y-39579D02*
X552630D01*
X-39890D02*
X86094D01*
X-39890D02*
Y295067D01*
X552630D01*
X552630Y-39579D02*
X552630Y295067D01*
D231*
X83820Y-2774D02*
G03*
X86614Y-3937I2794J2774D01*
G01*
X517717Y242126D02*
G03*
X516557Y244916I-3937J0D01*
G01*
X517717Y242126D02*
G03*
X516564Y244910I-3937J0D01*
G01*
X517717Y242126D02*
G03*
X516557Y244916I-3937J0D01*
G01*
X502784Y258689D02*
G03*
X500000Y259843I-2784J-2784D01*
G01*
X502784Y258689D02*
G03*
X499985Y259843I-2784J-2784D01*
G01*
X502784Y258689D02*
G03*
X499985Y259843I-2784J-2784D01*
G01*
X517717Y13780D02*
G03*
X517717Y13795I-3937J0D01*
G01*
X516564Y10996D02*
G03*
X517717Y13780I-2784J2784D01*
G01*
D02*
G03*
X517717Y13795I-3937J0D01*
G01*
X516564Y10996D02*
G03*
X517717Y13780I-2784J2784D01*
G01*
X516564Y10996D02*
G03*
X517717Y13780I-2784J2784D01*
G01*
X500000Y-3937D02*
G03*
X502784Y-2784I0J3937D01*
G01*
X500000Y-3937D02*
G03*
X502794Y-2774I0J3937D01*
G01*
X500000Y-3937D02*
G03*
X502794Y-2774I0J3937D01*
G01*
X86539Y259843D02*
G03*
X83755Y258689I0J-3937D01*
G01*
X86539Y259843D02*
G03*
X83755Y258689I0J-3937D01*
G01*
X0Y220548D02*
G03*
X-3937Y216611I0J-3937D01*
G01*
X0Y220548D02*
G03*
X-3937Y216611I0J-3937D01*
G01*
X-3937Y39370D02*
G03*
X0Y35433I3937J0D01*
G01*
X45613D01*
X-3937Y39370D02*
Y51464D01*
Y67464D02*
X-3937Y188521D01*
X86614Y-3937D02*
X135564D01*
X-3937Y204521D02*
Y216615D01*
X517717Y13787D02*
Y60791D01*
X517717Y195791D02*
Y242118D01*
X517717Y179791D02*
X517717Y76791D01*
X452480Y-3937D02*
X500008D01*
X151496Y-3988D02*
X436496Y-3937D01*
X86531Y259843D02*
X135480D01*
X45613Y220548D02*
X84908Y259843D01*
X151480Y259791D02*
X436480Y259843D01*
X452859D02*
X499992D01*
X502784Y258689D02*
X516557Y244916D01*
X516564Y244910D01*
X517717Y13780D02*
Y13795D01*
X502794Y-2774D02*
X516564Y10996D01*
X502784Y-2784D02*
X502794Y-2774D01*
X499985Y259843D02*
X500000D01*
X0Y220548D02*
X45613D01*
Y35433D02*
X83820Y-2774D01*
X83830Y-2784D01*
M02*
