G04*
G04 #@! TF.GenerationSoftware,Altium Limited,Altium NEXUS,2.0.15 (191)*
G04*
G04 Layer_Color=128*
%FSLAX25Y25*%
%MOIN*%
G70*
G01*
G75*
%ADD12R,0.02441X0.02441*%
%ADD13R,0.02559X0.02165*%
%ADD14R,0.02362X0.01968*%
%ADD15R,0.03937X0.05512*%
%ADD20R,0.05512X0.03937*%
%ADD21R,0.02165X0.01772*%
%ADD22R,0.01772X0.02165*%
%ADD23R,0.02165X0.02559*%
%ADD45R,0.03150X0.03543*%
G04:AMPARAMS|DCode=47|XSize=21.65mil|YSize=31.5mil|CornerRadius=1.95mil|HoleSize=0mil|Usage=FLASHONLY|Rotation=90.000|XOffset=0mil|YOffset=0mil|HoleType=Round|Shape=RoundedRectangle|*
%AMROUNDEDRECTD47*
21,1,0.02165,0.02760,0,0,90.0*
21,1,0.01776,0.03150,0,0,90.0*
1,1,0.00390,0.01380,0.00888*
1,1,0.00390,0.01380,-0.00888*
1,1,0.00390,-0.01380,-0.00888*
1,1,0.00390,-0.01380,0.00888*
%
%ADD47ROUNDEDRECTD47*%
%ADD52R,0.02441X0.02441*%
%ADD53R,0.03543X0.03937*%
%ADD54R,0.03543X0.03150*%
%ADD58R,0.01181X0.02756*%
%ADD107R,0.09449X0.02953*%
%ADD108R,0.04961X0.01417*%
%ADD109R,0.03158X0.03827*%
%ADD110R,0.01968X0.04921*%
%ADD111R,0.04921X0.01968*%
%ADD112R,0.03740X0.10236*%
%ADD113R,0.02165X0.05039*%
%ADD114R,0.03827X0.03158*%
%ADD116R,0.04331X0.05512*%
%ADD117R,0.02362X0.09646*%
%ADD118R,0.16929X0.02953*%
%ADD119R,0.01181X0.06102*%
%ADD120R,0.04724X0.10827*%
%ADD121R,0.05787X0.07874*%
%ADD122R,0.02756X0.01181*%
%ADD123O,0.05709X0.02362*%
%ADD124O,0.02362X0.07480*%
%ADD125R,0.05709X0.13583*%
%ADD126R,0.05512X0.04134*%
%ADD127O,0.03347X0.01181*%
%ADD128O,0.01181X0.03347*%
%ADD129R,0.25787X0.25787*%
G04:AMPARAMS|DCode=130|XSize=55.12mil|YSize=41.34mil|CornerRadius=10.34mil|HoleSize=0mil|Usage=FLASHONLY|Rotation=180.000|XOffset=0mil|YOffset=0mil|HoleType=Round|Shape=RoundedRectangle|*
%AMROUNDEDRECTD130*
21,1,0.05512,0.02067,0,0,180.0*
21,1,0.03445,0.04134,0,0,180.0*
1,1,0.02067,-0.01722,0.01034*
1,1,0.02067,0.01722,0.01034*
1,1,0.02067,0.01722,-0.01034*
1,1,0.02067,-0.01722,-0.01034*
%
%ADD130ROUNDEDRECTD130*%
%ADD131R,0.04921X0.07874*%
%ADD132R,0.13780X0.07874*%
%ADD133R,0.04724X0.07087*%
%ADD228R,0.02362X0.01968*%
G36*
X442384Y213958D02*
X442471Y212942D01*
X442995Y210971D01*
X443855Y209122D01*
X445023Y207450D01*
X446465Y206008D01*
X448137Y204840D01*
X449986Y203980D01*
X451957Y203456D01*
X452973Y203369D01*
D01*
Y207527D01*
X452972D01*
X452371Y207632D01*
X451203Y207987D01*
X450109Y208527D01*
X449117Y209239D01*
X448253Y210102D01*
X447542Y211093D01*
X447002Y212188D01*
X446646Y213356D01*
X446542Y213957D01*
D01*
Y213958D01*
X442384D01*
D02*
G37*
G36*
X452973Y226514D02*
X451957Y226428D01*
X449986Y225904D01*
X448137Y225044D01*
X446465Y223875D01*
X445023Y222433D01*
X443855Y220762D01*
X442995Y218913D01*
X442471Y216942D01*
X442384Y215926D01*
Y215926D01*
X446541D01*
Y215926D01*
X446646Y216528D01*
X447002Y217696D01*
X447542Y218790D01*
X448253Y219782D01*
X449116Y220645D01*
X450108Y221356D01*
X451203Y221897D01*
X452371Y222252D01*
X452972Y222357D01*
Y222357D01*
X452973D01*
Y226514D01*
D02*
G37*
G36*
X454941Y203369D02*
X455957Y203456D01*
X457928Y203980D01*
X459777Y204840D01*
X461448Y206008D01*
X462890Y207450D01*
X464059Y209122D01*
X464919Y210971D01*
X465443Y212942D01*
X465529Y213958D01*
X465529D01*
X461372D01*
X461372Y213958D01*
X461267Y213356D01*
X460912Y212188D01*
X460371Y211094D01*
X459660Y210102D01*
X458797Y209239D01*
X457805Y208527D01*
X456711Y207987D01*
X455543Y207632D01*
X454941Y207527D01*
X454941D01*
X454941D01*
X454941Y203369D01*
D02*
G37*
G36*
X465529Y215926D02*
X465443Y216942D01*
X464919Y218913D01*
X464059Y220762D01*
X462890Y222433D01*
X461448Y223875D01*
X459777Y225044D01*
X457928Y225904D01*
X455957Y226428D01*
X454941Y226514D01*
X454941Y226514D01*
Y222357D01*
X454941Y222357D01*
X455543Y222252D01*
X456710Y221897D01*
X457805Y221356D01*
X458797Y220645D01*
X459660Y219782D01*
X460371Y218790D01*
X460912Y217696D01*
X461267Y216528D01*
X461372Y215926D01*
X461372Y215926D01*
Y215926D01*
X465529Y215926D01*
D02*
G37*
D12*
X170374Y55643D02*
D03*
Y59186D02*
D03*
X195000Y98461D02*
D03*
Y102005D02*
D03*
X74398Y103953D02*
D03*
Y107496D02*
D03*
X167788Y114563D02*
D03*
Y118107D02*
D03*
X74260Y133219D02*
D03*
Y136763D02*
D03*
X147696Y142216D02*
D03*
Y145760D02*
D03*
X195065Y125419D02*
D03*
Y128962D02*
D03*
X195065Y120071D02*
D03*
Y116527D02*
D03*
X187077Y155001D02*
D03*
Y151458D02*
D03*
D13*
X133858Y72658D02*
D03*
Y76595D02*
D03*
X133884Y61594D02*
D03*
Y65531D02*
D03*
X133408Y54204D02*
D03*
Y50267D02*
D03*
X128561D02*
D03*
Y54204D02*
D03*
X128356Y97256D02*
D03*
Y93319D02*
D03*
X127756Y63091D02*
D03*
Y67028D02*
D03*
X154331Y96198D02*
D03*
Y92261D02*
D03*
X159142Y96198D02*
D03*
Y92261D02*
D03*
X190000Y168650D02*
D03*
Y164713D02*
D03*
X52984Y111488D02*
D03*
Y107551D02*
D03*
X53000Y99874D02*
D03*
Y103811D02*
D03*
X125582Y112402D02*
D03*
Y108465D02*
D03*
X85000Y138948D02*
D03*
Y142885D02*
D03*
X85000Y110354D02*
D03*
Y114291D02*
D03*
X85000Y134887D02*
D03*
Y130950D02*
D03*
X85000Y105841D02*
D03*
Y101904D02*
D03*
X223579Y126241D02*
D03*
Y122304D02*
D03*
Y141911D02*
D03*
Y145848D02*
D03*
X53000Y141172D02*
D03*
Y137235D02*
D03*
X52835Y129400D02*
D03*
Y133337D02*
D03*
X127287Y142217D02*
D03*
Y146154D02*
D03*
X131224Y142216D02*
D03*
Y146153D02*
D03*
X135063Y142217D02*
D03*
Y146153D02*
D03*
X139000Y142217D02*
D03*
Y146154D02*
D03*
X142937Y142217D02*
D03*
Y146154D02*
D03*
X182612Y88470D02*
D03*
Y92407D02*
D03*
X182097Y147497D02*
D03*
Y143560D02*
D03*
X182112Y155198D02*
D03*
Y151261D02*
D03*
X404650Y58920D02*
D03*
Y62857D02*
D03*
D14*
Y54817D02*
D03*
Y51273D02*
D03*
D15*
X192260Y83521D02*
D03*
X196000Y92183D02*
D03*
X188520D02*
D03*
X372417Y42488D02*
D03*
X376157Y51150D02*
D03*
X368676D02*
D03*
X232418Y137163D02*
D03*
X236158Y145824D02*
D03*
X228678D02*
D03*
X110088Y43729D02*
D03*
X106348Y35067D02*
D03*
X113829D02*
D03*
D20*
X207093Y136416D02*
D03*
Y143896D02*
D03*
X215755Y140156D02*
D03*
X57709Y149583D02*
D03*
X66370Y145843D02*
D03*
Y153323D02*
D03*
X57709Y119854D02*
D03*
X66370Y116114D02*
D03*
Y123594D02*
D03*
X175043Y165938D02*
D03*
X183705Y162198D02*
D03*
Y169679D02*
D03*
D21*
X187077Y147498D02*
D03*
Y143954D02*
D03*
D22*
X127681Y138004D02*
D03*
X131224D02*
D03*
X165855Y165938D02*
D03*
X169399D02*
D03*
D23*
X133968Y27877D02*
D03*
X130032D02*
D03*
X133968Y45937D02*
D03*
X130032D02*
D03*
X108120Y29098D02*
D03*
X112057D02*
D03*
X169596Y170523D02*
D03*
X165658D02*
D03*
X52565Y120002D02*
D03*
X48628D02*
D03*
X216729Y126015D02*
D03*
X212792D02*
D03*
X212854Y130603D02*
D03*
X216791D02*
D03*
X227040Y104836D02*
D03*
X223103D02*
D03*
X52228Y149583D02*
D03*
X48291D02*
D03*
X205324Y130602D02*
D03*
X209261D02*
D03*
X133968Y32483D02*
D03*
X130032D02*
D03*
X133968Y37154D02*
D03*
X130032D02*
D03*
X133968Y41585D02*
D03*
X130032D02*
D03*
X194117Y77553D02*
D03*
X190180D02*
D03*
X168631Y48513D02*
D03*
X172569D02*
D03*
X162841Y27888D02*
D03*
X158904D02*
D03*
X168596Y38691D02*
D03*
X172533D02*
D03*
X172533Y43395D02*
D03*
X168596D02*
D03*
D45*
X328553Y30451D02*
D03*
X320915Y55412D02*
D03*
X335915D02*
D03*
X339576Y30451D02*
D03*
X317529D02*
D03*
X325639Y55412D02*
D03*
D47*
X179823Y100132D02*
D03*
Y103872D02*
D03*
Y107612D02*
D03*
X189862D02*
D03*
Y100132D02*
D03*
D52*
X149500Y27483D02*
D03*
X153043D02*
D03*
X147638Y96630D02*
D03*
X144094D02*
D03*
X44412Y111463D02*
D03*
X47955D02*
D03*
X44457Y99874D02*
D03*
X48000D02*
D03*
X205496Y126077D02*
D03*
X201953D02*
D03*
X44734Y141078D02*
D03*
X48278D02*
D03*
X44778Y129227D02*
D03*
X48322D02*
D03*
X366240Y235520D02*
D03*
X369783D02*
D03*
X290945Y235323D02*
D03*
X294488D02*
D03*
D53*
X154650Y54633D02*
D03*
X148351D02*
D03*
X125000Y118799D02*
D03*
X118701D02*
D03*
D54*
X32916Y165938D02*
D03*
X40790Y162198D02*
D03*
Y169679D02*
D03*
X40937Y75064D02*
D03*
X33063Y78804D02*
D03*
Y71324D02*
D03*
X33058Y89408D02*
D03*
X40932Y85668D02*
D03*
Y93148D02*
D03*
D58*
X393390Y53323D02*
D03*
X395555D02*
D03*
X393390Y58244D02*
D03*
X395555D02*
D03*
D107*
X219677Y68823D02*
D03*
Y63823D02*
D03*
Y58823D02*
D03*
Y38823D02*
D03*
Y43823D02*
D03*
Y48823D02*
D03*
Y53823D02*
D03*
Y73823D02*
D03*
X204323Y58823D02*
D03*
Y73823D02*
D03*
Y68823D02*
D03*
Y63823D02*
D03*
Y53823D02*
D03*
Y48823D02*
D03*
Y43823D02*
D03*
Y38823D02*
D03*
D108*
X162689Y48513D02*
D03*
X139854Y33158D02*
D03*
Y35717D02*
D03*
Y38276D02*
D03*
Y40836D02*
D03*
Y43395D02*
D03*
Y45954D02*
D03*
Y48513D02*
D03*
X162689Y33158D02*
D03*
Y35717D02*
D03*
Y38276D02*
D03*
Y40836D02*
D03*
Y43395D02*
D03*
Y45954D02*
D03*
D109*
X232418Y129255D02*
D03*
X228678Y122287D02*
D03*
X236158D02*
D03*
X81000Y73268D02*
D03*
X77260Y66299D02*
D03*
X84740D02*
D03*
X81000Y92882D02*
D03*
X77260Y85914D02*
D03*
X84740D02*
D03*
D110*
X159709Y145331D02*
D03*
X162268Y153796D02*
D03*
X157150D02*
D03*
X173063Y153843D02*
D03*
X170503Y145378D02*
D03*
X175622D02*
D03*
X192260Y61299D02*
D03*
X194819Y69764D02*
D03*
X189701D02*
D03*
D111*
X225508Y95734D02*
D03*
X233972Y93175D02*
D03*
Y98293D02*
D03*
X225432Y114017D02*
D03*
X233896Y111458D02*
D03*
Y116576D02*
D03*
D112*
X106512Y69784D02*
D03*
X95488D02*
D03*
X106512Y89398D02*
D03*
X95488D02*
D03*
D113*
X120145Y65787D02*
D03*
X112664D02*
D03*
X116405Y73780D02*
D03*
X120145Y85402D02*
D03*
X112664D02*
D03*
X116405Y93394D02*
D03*
D114*
X182484Y183835D02*
D03*
X175516Y187576D02*
D03*
Y180095D02*
D03*
X153847D02*
D03*
Y187576D02*
D03*
X160815Y183835D02*
D03*
X153658Y162198D02*
D03*
Y169679D02*
D03*
X160627Y165938D02*
D03*
D116*
X305443Y51869D02*
D03*
X348356D02*
D03*
D117*
X347175Y12302D02*
D03*
X306624D02*
D03*
D118*
X326899Y4723D02*
D03*
D119*
X417505Y37154D02*
D03*
X419474D02*
D03*
X421442D02*
D03*
X423411D02*
D03*
X425379D02*
D03*
X427348D02*
D03*
X437190D02*
D03*
X439159D02*
D03*
X441127D02*
D03*
X443096D02*
D03*
X445064D02*
D03*
X447033D02*
D03*
X449001D02*
D03*
X450970D02*
D03*
X452938D02*
D03*
X454907D02*
D03*
X456875D02*
D03*
X458844D02*
D03*
X460812D02*
D03*
X462781D02*
D03*
X464749D02*
D03*
X466718D02*
D03*
X468686D02*
D03*
X470655D02*
D03*
X472623D02*
D03*
X474592D02*
D03*
X476560D02*
D03*
X478529D02*
D03*
X480497D02*
D03*
X482466D02*
D03*
X484434D02*
D03*
X486403D02*
D03*
X488371D02*
D03*
X490340D02*
D03*
X418490Y66878D02*
D03*
X420458D02*
D03*
X422427D02*
D03*
X424395D02*
D03*
X426364D02*
D03*
X436206D02*
D03*
X438175D02*
D03*
X440143D02*
D03*
X442112D02*
D03*
X444080D02*
D03*
X446049D02*
D03*
X448017D02*
D03*
X449986D02*
D03*
X451954D02*
D03*
X453923D02*
D03*
X455891D02*
D03*
X457860D02*
D03*
X459828D02*
D03*
X461797D02*
D03*
X463765D02*
D03*
X465734D02*
D03*
X467702D02*
D03*
X469671D02*
D03*
X471639D02*
D03*
X473608D02*
D03*
X475576D02*
D03*
X477545D02*
D03*
X479513D02*
D03*
X481482D02*
D03*
X483450D02*
D03*
X485419D02*
D03*
X487387D02*
D03*
X489356D02*
D03*
D120*
X413175Y40205D02*
D03*
X494671D02*
D03*
D121*
X63260Y135110D02*
D03*
X63221Y105681D02*
D03*
D122*
X57315Y131271D02*
D03*
Y133830D02*
D03*
Y136389D02*
D03*
Y138948D02*
D03*
X69205Y131271D02*
D03*
Y133830D02*
D03*
Y136389D02*
D03*
Y138948D02*
D03*
X57276Y101842D02*
D03*
Y104401D02*
D03*
Y106960D02*
D03*
Y109519D02*
D03*
X69165Y101842D02*
D03*
Y104401D02*
D03*
Y106960D02*
D03*
Y109519D02*
D03*
D123*
X162106Y76595D02*
D03*
Y71595D02*
D03*
Y66594D02*
D03*
Y61594D02*
D03*
X140650Y76595D02*
D03*
Y71595D02*
D03*
Y66594D02*
D03*
Y61594D02*
D03*
D124*
X201906Y119519D02*
D03*
X206906D02*
D03*
X211906D02*
D03*
X216906D02*
D03*
X201906Y101015D02*
D03*
X206906D02*
D03*
X211906D02*
D03*
X216906D02*
D03*
D125*
X98000Y47914D02*
D03*
X73591D02*
D03*
D126*
X170472Y72835D02*
D03*
Y65354D02*
D03*
D127*
X131299Y104724D02*
D03*
Y107283D02*
D03*
Y109843D02*
D03*
Y112401D02*
D03*
Y114961D02*
D03*
Y117520D02*
D03*
Y120079D02*
D03*
Y122638D02*
D03*
Y125197D02*
D03*
Y127756D02*
D03*
Y130315D02*
D03*
X162008D02*
D03*
Y127756D02*
D03*
Y125197D02*
D03*
Y122638D02*
D03*
Y120079D02*
D03*
Y117520D02*
D03*
Y114961D02*
D03*
Y112401D02*
D03*
Y109843D02*
D03*
Y107283D02*
D03*
Y104724D02*
D03*
D128*
X133858Y132874D02*
D03*
X136417D02*
D03*
X138976D02*
D03*
X141535D02*
D03*
X144094D02*
D03*
X146653D02*
D03*
X149213D02*
D03*
X151771D02*
D03*
X154331D02*
D03*
X156890D02*
D03*
X159449D02*
D03*
Y102165D02*
D03*
X156890D02*
D03*
X154331D02*
D03*
X151771D02*
D03*
X149213D02*
D03*
X146653D02*
D03*
X144094D02*
D03*
X141535D02*
D03*
X138976D02*
D03*
X136417D02*
D03*
X133858D02*
D03*
D129*
X146653Y117520D02*
D03*
D130*
X290087Y13232D02*
D03*
X275913D02*
D03*
X290087Y7523D02*
D03*
X275913D02*
D03*
X234968Y7523D02*
D03*
X249141D02*
D03*
X234968Y13232D02*
D03*
X249141D02*
D03*
D131*
X273317Y228253D02*
D03*
X281191D02*
D03*
X263475D02*
D03*
X291034D02*
D03*
X348263Y228252D02*
D03*
X356137D02*
D03*
X338421D02*
D03*
X365980D02*
D03*
D132*
X307274Y220379D02*
D03*
X247235D02*
D03*
X307274Y196363D02*
D03*
X247235D02*
D03*
X382220Y220378D02*
D03*
X322180D02*
D03*
X382220Y196362D02*
D03*
X322180D02*
D03*
D133*
X188836Y114488D02*
D03*
Y130236D02*
D03*
X179387D02*
D03*
Y114488D02*
D03*
D228*
X33063Y150836D02*
D03*
X40937Y154576D02*
D03*
Y147095D02*
D03*
X40775Y100983D02*
D03*
Y108463D02*
D03*
X32901Y104723D02*
D03*
M02*
