G04*
G04 #@! TF.GenerationSoftware,Altium Limited,Altium NEXUS,2.0.15 (191)*
G04*
G04 Layer_Color=8421504*
%FSLAX25Y25*%
%MOIN*%
G70*
G01*
G75*
%ADD11R,0.02559X0.03740*%
%ADD12R,0.02441X0.02441*%
%ADD13R,0.02559X0.02165*%
%ADD14R,0.02362X0.01968*%
%ADD15R,0.03937X0.05512*%
%ADD16O,0.01378X0.07874*%
%ADD17R,0.06299X0.13780*%
%ADD18C,0.02500*%
%ADD19R,0.02953X0.09449*%
%ADD20R,0.05512X0.03937*%
%ADD21R,0.02165X0.01772*%
%ADD22R,0.01772X0.02165*%
%ADD23R,0.02165X0.02559*%
%ADD24R,0.07087X0.09449*%
%ADD25R,0.05709X0.08071*%
%ADD26R,0.03543X0.02756*%
%ADD27R,0.03937X0.03543*%
%ADD28R,0.07874X0.06693*%
%ADD29O,0.01772X0.05315*%
%ADD30R,0.02953X0.00984*%
%ADD31R,0.03071X0.05906*%
%ADD32R,0.14567X0.14567*%
%ADD33O,0.04528X0.01181*%
%ADD34O,0.01181X0.04528*%
%ADD35O,0.01968X0.00787*%
%ADD36R,0.01299X0.11024*%
%ADD37C,0.00984*%
%ADD38R,0.09843X0.03740*%
%ADD39R,0.08661X0.04528*%
%ADD40R,0.04528X0.05906*%
%ADD41R,0.04724X0.04567*%
%ADD42R,0.04921X0.04567*%
%ADD43R,0.04882X0.03150*%
%ADD44R,0.15000X0.16693*%
%ADD45R,0.03150X0.03543*%
%ADD46R,0.04724X0.03543*%
G04:AMPARAMS|DCode=47|XSize=21.65mil|YSize=31.5mil|CornerRadius=1.95mil|HoleSize=0mil|Usage=FLASHONLY|Rotation=90.000|XOffset=0mil|YOffset=0mil|HoleType=Round|Shape=RoundedRectangle|*
%AMROUNDEDRECTD47*
21,1,0.02165,0.02760,0,0,90.0*
21,1,0.01776,0.03150,0,0,90.0*
1,1,0.00390,0.01380,0.00888*
1,1,0.00390,0.01380,-0.00888*
1,1,0.00390,-0.01380,-0.00888*
1,1,0.00390,-0.01380,0.00888*
%
%ADD47ROUNDEDRECTD47*%
%ADD48R,0.10236X0.03740*%
%ADD49R,0.07087X0.04724*%
%ADD50R,0.00906X0.03937*%
%ADD51R,0.05118X0.01772*%
%ADD52R,0.02441X0.02441*%
%ADD53R,0.03543X0.03937*%
%ADD54R,0.03543X0.03150*%
%ADD55R,0.03543X0.04724*%
%ADD56R,0.01968X0.02362*%
%ADD57R,0.02756X0.01181*%
%ADD58R,0.01181X0.02756*%
%ADD59R,0.17717X0.18110*%
D11*
X441561Y6299D02*
D03*
X438017Y15551D02*
D03*
X445104D02*
D03*
D12*
X431627Y14713D02*
D03*
Y11169D02*
D03*
X451538Y14665D02*
D03*
Y11122D02*
D03*
X339518Y31751D02*
D03*
Y35294D02*
D03*
X339554Y21377D02*
D03*
Y17834D02*
D03*
X483464Y208551D02*
D03*
Y212094D02*
D03*
X315000Y172607D02*
D03*
Y169064D02*
D03*
X345098Y169064D02*
D03*
Y172607D02*
D03*
X284096Y137637D02*
D03*
Y141180D02*
D03*
X310998Y149323D02*
D03*
Y152866D02*
D03*
X118658Y187165D02*
D03*
Y183622D02*
D03*
X123075Y208625D02*
D03*
Y205082D02*
D03*
X90181Y208625D02*
D03*
Y205082D02*
D03*
X148281Y167586D02*
D03*
Y164042D02*
D03*
Y173337D02*
D03*
Y176881D02*
D03*
D13*
X257900Y12055D02*
D03*
Y8118D02*
D03*
X266350Y8117D02*
D03*
Y12054D02*
D03*
X219000Y82292D02*
D03*
Y78355D02*
D03*
X106354Y226804D02*
D03*
Y222867D02*
D03*
X344224Y35735D02*
D03*
Y31798D02*
D03*
X334690Y17665D02*
D03*
Y21602D02*
D03*
X240551Y38867D02*
D03*
Y42804D02*
D03*
X248551Y38867D02*
D03*
Y42804D02*
D03*
X272803Y42717D02*
D03*
Y38780D02*
D03*
X277657Y35873D02*
D03*
Y31936D02*
D03*
X275295Y91142D02*
D03*
Y95079D02*
D03*
X271358Y91142D02*
D03*
Y95079D02*
D03*
X295500Y43287D02*
D03*
Y39350D02*
D03*
X289663Y43287D02*
D03*
Y39350D02*
D03*
X348600Y35790D02*
D03*
Y31853D02*
D03*
X355673Y35735D02*
D03*
Y31798D02*
D03*
X353248Y91535D02*
D03*
Y95472D02*
D03*
X349311Y91535D02*
D03*
Y95472D02*
D03*
X360654Y35735D02*
D03*
Y31798D02*
D03*
X450492Y95473D02*
D03*
Y91536D02*
D03*
X302057Y141486D02*
D03*
Y137549D02*
D03*
X306108Y152967D02*
D03*
Y149030D02*
D03*
X301557Y153015D02*
D03*
Y149078D02*
D03*
X279523Y141352D02*
D03*
Y137415D02*
D03*
X274680Y124879D02*
D03*
Y128816D02*
D03*
X296752Y137549D02*
D03*
Y141486D02*
D03*
X292717Y141486D02*
D03*
Y137549D02*
D03*
X288780Y141486D02*
D03*
Y137549D02*
D03*
X275025Y141352D02*
D03*
Y137415D02*
D03*
X121219Y222757D02*
D03*
Y226694D02*
D03*
X96016Y222867D02*
D03*
Y226804D02*
D03*
X90181Y214413D02*
D03*
Y218350D02*
D03*
X122681Y214413D02*
D03*
Y218350D02*
D03*
X111370Y222757D02*
D03*
Y226694D02*
D03*
D14*
X139200Y143040D02*
D03*
Y146583D02*
D03*
X135363Y146582D02*
D03*
Y143039D02*
D03*
X131228Y146581D02*
D03*
Y143038D02*
D03*
X270933Y11858D02*
D03*
Y8315D02*
D03*
X253200Y8264D02*
D03*
Y11807D02*
D03*
X219000Y86986D02*
D03*
Y90529D02*
D03*
X116355Y222954D02*
D03*
Y226497D02*
D03*
X101000Y222954D02*
D03*
Y226497D02*
D03*
D15*
X423137Y23992D02*
D03*
X430617D02*
D03*
X426877Y32654D02*
D03*
X354987Y15992D02*
D03*
X351247Y24654D02*
D03*
X358727D02*
D03*
X441561Y32430D02*
D03*
X445301Y23769D02*
D03*
X437821D02*
D03*
X209000Y89250D02*
D03*
X212740Y80588D02*
D03*
X205260D02*
D03*
X209000Y105166D02*
D03*
X212740Y96505D02*
D03*
X205260D02*
D03*
D16*
X447736Y49469D02*
D03*
X450098D02*
D03*
X304823Y81752D02*
D03*
X302460D02*
D03*
X489075D02*
D03*
X486712D02*
D03*
X484350D02*
D03*
X481988D02*
D03*
X479626D02*
D03*
X477263D02*
D03*
X474901D02*
D03*
X472539D02*
D03*
X470177D02*
D03*
X467815D02*
D03*
X465452D02*
D03*
X463090D02*
D03*
X460728D02*
D03*
X458366D02*
D03*
X456004D02*
D03*
X453641D02*
D03*
X451279D02*
D03*
X448917D02*
D03*
X446555D02*
D03*
X444193D02*
D03*
X441830D02*
D03*
X439468D02*
D03*
X437106D02*
D03*
X434744D02*
D03*
X432382D02*
D03*
X430019D02*
D03*
X427657D02*
D03*
X425295D02*
D03*
X422933D02*
D03*
X420571D02*
D03*
X418208D02*
D03*
X415846D02*
D03*
X413484D02*
D03*
X411122D02*
D03*
X408760D02*
D03*
X406397D02*
D03*
X404035D02*
D03*
X401673D02*
D03*
X399311D02*
D03*
X396949D02*
D03*
X394586D02*
D03*
X392224D02*
D03*
X389862D02*
D03*
X387500D02*
D03*
X385138D02*
D03*
X382775D02*
D03*
X380413D02*
D03*
X378051D02*
D03*
X375689D02*
D03*
X373326D02*
D03*
X370964D02*
D03*
X368602D02*
D03*
X366240D02*
D03*
X363878D02*
D03*
X361515D02*
D03*
X359153D02*
D03*
X356791D02*
D03*
X354429D02*
D03*
X352067D02*
D03*
X349704D02*
D03*
X347342D02*
D03*
X344980D02*
D03*
X342618D02*
D03*
X340256D02*
D03*
X337893D02*
D03*
X335531D02*
D03*
X333169D02*
D03*
X330807D02*
D03*
X328445D02*
D03*
X326082D02*
D03*
X323720D02*
D03*
X321358D02*
D03*
X318996D02*
D03*
X316634D02*
D03*
X314271D02*
D03*
X311909D02*
D03*
X309547D02*
D03*
X307185D02*
D03*
X285925D02*
D03*
X283563D02*
D03*
X281201D02*
D03*
X278838D02*
D03*
X276476D02*
D03*
X274114D02*
D03*
X271752D02*
D03*
X269389D02*
D03*
X267027D02*
D03*
X264665D02*
D03*
X262303D02*
D03*
X259941D02*
D03*
X257578D02*
D03*
X255216D02*
D03*
X252854D02*
D03*
X250492D02*
D03*
X248130D02*
D03*
X245767D02*
D03*
X243405D02*
D03*
X241043D02*
D03*
X239862Y49469D02*
D03*
X242224D02*
D03*
X244586D02*
D03*
X246949D02*
D03*
X249311D02*
D03*
X251673D02*
D03*
X254035D02*
D03*
X256397D02*
D03*
X258760D02*
D03*
X261122D02*
D03*
X263484D02*
D03*
X265846D02*
D03*
X268208D02*
D03*
X270571D02*
D03*
X272933D02*
D03*
X275295D02*
D03*
X277657D02*
D03*
X280019D02*
D03*
X282382D02*
D03*
X284744D02*
D03*
X301279D02*
D03*
X303641D02*
D03*
X306004D02*
D03*
X308366D02*
D03*
X310728D02*
D03*
X313090D02*
D03*
X315452D02*
D03*
X317815D02*
D03*
X320177D02*
D03*
X322539D02*
D03*
X324901D02*
D03*
X327263D02*
D03*
X329626D02*
D03*
X331988D02*
D03*
X334350D02*
D03*
X336712D02*
D03*
X339075D02*
D03*
X341437D02*
D03*
X343799D02*
D03*
X346161D02*
D03*
X348523D02*
D03*
X350886D02*
D03*
X353248D02*
D03*
X355610D02*
D03*
X357972D02*
D03*
X360334D02*
D03*
X362697D02*
D03*
X365059D02*
D03*
X367421D02*
D03*
X369783D02*
D03*
X372145D02*
D03*
X374508D02*
D03*
X376870D02*
D03*
X379232D02*
D03*
X381594D02*
D03*
X383956D02*
D03*
X386319D02*
D03*
X388681D02*
D03*
X391043D02*
D03*
X393405D02*
D03*
X395767D02*
D03*
X398130D02*
D03*
X400492D02*
D03*
X402854D02*
D03*
X405216D02*
D03*
X407579D02*
D03*
X409941D02*
D03*
X412303D02*
D03*
X414665D02*
D03*
X417027D02*
D03*
X419389D02*
D03*
X421752D02*
D03*
X424114D02*
D03*
X426476D02*
D03*
X428838D02*
D03*
X431201D02*
D03*
X433563D02*
D03*
X435925D02*
D03*
X438287D02*
D03*
X440649D02*
D03*
X443012D02*
D03*
X445374D02*
D03*
X452460D02*
D03*
X454823D02*
D03*
X457185D02*
D03*
X459547D02*
D03*
X461909D02*
D03*
X464271D02*
D03*
X466634D02*
D03*
X468996D02*
D03*
X471358D02*
D03*
X473720D02*
D03*
X476082D02*
D03*
X478445D02*
D03*
X480807D02*
D03*
X483169D02*
D03*
X485531D02*
D03*
X487893D02*
D03*
D17*
X109000Y147299D02*
D03*
Y169346D02*
D03*
X437616Y211374D02*
D03*
Y233421D02*
D03*
X324539Y232921D02*
D03*
Y210874D02*
D03*
X249800Y233611D02*
D03*
Y211564D02*
D03*
X142345Y188874D02*
D03*
Y210921D02*
D03*
D18*
X116355Y214898D02*
D03*
Y209898D02*
D03*
Y204898D02*
D03*
Y199898D02*
D03*
Y194898D02*
D03*
X111354Y214898D02*
D03*
Y209898D02*
D03*
Y204898D02*
D03*
Y199898D02*
D03*
Y194898D02*
D03*
X106354Y214898D02*
D03*
Y209898D02*
D03*
Y204898D02*
D03*
Y199898D02*
D03*
Y194898D02*
D03*
X101355Y214898D02*
D03*
Y209898D02*
D03*
Y204898D02*
D03*
Y199898D02*
D03*
Y194898D02*
D03*
X96355Y214898D02*
D03*
Y209898D02*
D03*
Y204898D02*
D03*
Y199898D02*
D03*
Y194898D02*
D03*
D19*
X206500Y51158D02*
D03*
Y66513D02*
D03*
X211500Y51158D02*
D03*
Y66513D02*
D03*
D20*
X141412Y157051D02*
D03*
X132751Y153311D02*
D03*
Y160791D02*
D03*
X275322Y20936D02*
D03*
X266660Y17195D02*
D03*
Y24676D02*
D03*
D21*
X336759Y159866D02*
D03*
Y152820D02*
D03*
Y156323D02*
D03*
Y149277D02*
D03*
X244551Y39064D02*
D03*
Y42607D02*
D03*
X297347Y92913D02*
D03*
Y89370D02*
D03*
X266800Y38976D02*
D03*
Y42520D02*
D03*
D22*
X321099Y158835D02*
D03*
X328082Y150836D02*
D03*
X320996D02*
D03*
X324539D02*
D03*
X328185Y158835D02*
D03*
X324642D02*
D03*
X301969Y167470D02*
D03*
X305512D02*
D03*
D23*
X244551Y31184D02*
D03*
X240614D02*
D03*
X210968Y75136D02*
D03*
X207031D02*
D03*
X207031Y110602D02*
D03*
X210968D02*
D03*
X264800Y34302D02*
D03*
X260863D02*
D03*
X430814Y38320D02*
D03*
X426877D02*
D03*
X231647Y202162D02*
D03*
X235584D02*
D03*
X306063Y202213D02*
D03*
X310000D02*
D03*
X419543Y202302D02*
D03*
X423480D02*
D03*
X408519Y232347D02*
D03*
X412456D02*
D03*
X294805Y232313D02*
D03*
X298742D02*
D03*
X220872Y232323D02*
D03*
X224809D02*
D03*
X127050Y160853D02*
D03*
X123113D02*
D03*
D24*
X74689Y209230D02*
D03*
Y193482D02*
D03*
D25*
Y183446D02*
D03*
Y172225D02*
D03*
D26*
X41436Y177080D02*
D03*
Y182591D02*
D03*
D27*
X334268Y30339D02*
D03*
Y36638D02*
D03*
X96300Y188285D02*
D03*
Y181986D02*
D03*
X291622Y87992D02*
D03*
Y94291D02*
D03*
X112355Y188543D02*
D03*
Y182244D02*
D03*
D28*
X225840Y217372D02*
D03*
X413736Y217513D02*
D03*
X300000Y217323D02*
D03*
D29*
X229679Y226132D02*
D03*
X227120D02*
D03*
X224561D02*
D03*
X222002D02*
D03*
X229679Y208613D02*
D03*
X227120D02*
D03*
X224561D02*
D03*
X222002D02*
D03*
X417574Y226272D02*
D03*
X415015D02*
D03*
X412456D02*
D03*
X409897D02*
D03*
X417574Y208753D02*
D03*
X415015D02*
D03*
X412456D02*
D03*
X409897D02*
D03*
X303839Y226083D02*
D03*
X301280D02*
D03*
X298721D02*
D03*
X296162D02*
D03*
X303839Y208563D02*
D03*
X301280D02*
D03*
X298721D02*
D03*
X296162D02*
D03*
D30*
X287084Y124879D02*
D03*
Y126848D02*
D03*
Y128816D02*
D03*
Y130784D02*
D03*
X279486Y124879D02*
D03*
Y126848D02*
D03*
Y128816D02*
D03*
Y130784D02*
D03*
D31*
X283285Y127832D02*
D03*
D32*
X284449Y161565D02*
D03*
D33*
X295374Y169439D02*
D03*
Y167470D02*
D03*
Y165502D02*
D03*
Y163533D02*
D03*
Y161565D02*
D03*
Y155659D02*
D03*
Y153691D02*
D03*
X273524D02*
D03*
Y155659D02*
D03*
Y157628D02*
D03*
Y159596D02*
D03*
Y161565D02*
D03*
Y163533D02*
D03*
Y165502D02*
D03*
Y167470D02*
D03*
Y169439D02*
D03*
X295374Y159596D02*
D03*
Y157628D02*
D03*
D34*
X292323Y150639D02*
D03*
X290354D02*
D03*
X288386D02*
D03*
X286417D02*
D03*
X284449D02*
D03*
X282480D02*
D03*
X280512D02*
D03*
X278543D02*
D03*
X276575D02*
D03*
Y172490D02*
D03*
X278543D02*
D03*
X280512D02*
D03*
X282480D02*
D03*
X284449D02*
D03*
X286417D02*
D03*
X288386D02*
D03*
X290354D02*
D03*
X292323D02*
D03*
D35*
X437027Y169482D02*
D03*
Y167907D02*
D03*
Y166332D02*
D03*
Y164758D02*
D03*
Y163183D02*
D03*
Y161608D02*
D03*
Y160033D02*
D03*
Y158458D02*
D03*
X442342D02*
D03*
Y160033D02*
D03*
Y161608D02*
D03*
Y163183D02*
D03*
Y164758D02*
D03*
Y166332D02*
D03*
Y167907D02*
D03*
Y169482D02*
D03*
D36*
X439685Y163970D02*
D03*
D37*
X383679Y39936D02*
D03*
Y38361D02*
D03*
Y36786D02*
D03*
X382104Y39936D02*
D03*
Y38361D02*
D03*
Y36786D02*
D03*
X380529Y39936D02*
D03*
Y38361D02*
D03*
Y36786D02*
D03*
D38*
X495866Y196037D02*
D03*
D39*
X451260Y195643D02*
D03*
X496456Y139383D02*
D03*
D40*
X448130Y178695D02*
D03*
Y148065D02*
D03*
D41*
X452559Y140978D02*
D03*
D42*
X487992D02*
D03*
D43*
X498346Y148616D02*
D03*
Y152946D02*
D03*
Y157277D02*
D03*
Y161608D02*
D03*
Y165939D02*
D03*
Y170269D02*
D03*
Y174600D02*
D03*
Y178931D02*
D03*
D44*
X56920Y176523D02*
D03*
Y201602D02*
D03*
D45*
X281437Y205564D02*
D03*
X273563D02*
D03*
Y213438D02*
D03*
X356937Y205492D02*
D03*
X349063D02*
D03*
Y213366D02*
D03*
D46*
X280650Y213438D02*
D03*
X356150Y213366D02*
D03*
D47*
X142019Y174759D02*
D03*
Y167278D02*
D03*
X131980D02*
D03*
Y171019D02*
D03*
Y174759D02*
D03*
D48*
X74759Y229237D02*
D03*
Y218213D02*
D03*
D49*
X322088Y175269D02*
D03*
X337836D02*
D03*
Y165820D02*
D03*
X322088D02*
D03*
D50*
X408876Y29323D02*
D03*
X407301D02*
D03*
X405726D02*
D03*
X404151D02*
D03*
X399427D02*
D03*
X397852D02*
D03*
X396277D02*
D03*
X394702D02*
D03*
X389978D02*
D03*
X388403D02*
D03*
X386828D02*
D03*
X385254D02*
D03*
X383679D02*
D03*
X382104D02*
D03*
X380529D02*
D03*
X402576D02*
D03*
X401002D02*
D03*
X393127D02*
D03*
X391553D02*
D03*
D51*
X489093Y220682D02*
D03*
Y218123D02*
D03*
Y215564D02*
D03*
Y223241D02*
D03*
Y213005D02*
D03*
D52*
X412456Y202094D02*
D03*
X408913D02*
D03*
X298764Y202123D02*
D03*
X295221D02*
D03*
X260990Y149639D02*
D03*
X264533D02*
D03*
X225072Y202162D02*
D03*
X221529D02*
D03*
X261146Y171582D02*
D03*
X264690D02*
D03*
X304725Y171407D02*
D03*
X301181D02*
D03*
X284731Y118323D02*
D03*
X281188D02*
D03*
X126853Y174689D02*
D03*
X123310D02*
D03*
X123310Y167278D02*
D03*
X126853D02*
D03*
D53*
X257754Y155323D02*
D03*
X264054D02*
D03*
X257771Y161565D02*
D03*
X264070D02*
D03*
X257840Y176579D02*
D03*
X264139D02*
D03*
D54*
X465773Y212842D02*
D03*
Y220717D02*
D03*
X473647D02*
D03*
D55*
Y213630D02*
D03*
D56*
X412259Y236749D02*
D03*
X408716D02*
D03*
X298487Y237313D02*
D03*
X294944D02*
D03*
X224612Y236906D02*
D03*
X221069D02*
D03*
X309606Y144723D02*
D03*
X306063D02*
D03*
D57*
X478543Y217980D02*
D03*
X483464D02*
D03*
Y215815D02*
D03*
X478543D02*
D03*
D58*
X353083Y224862D02*
D03*
Y229784D02*
D03*
X350917D02*
D03*
Y224862D02*
D03*
X276575Y229713D02*
D03*
X278740D02*
D03*
Y224791D02*
D03*
X276575D02*
D03*
D59*
X232576Y112701D02*
D03*
X496075D02*
D03*
M02*
