G04*
G04 #@! TF.GenerationSoftware,Altium Limited,Altium NEXUS,2.0.15 (191)*
G04*
G04 Layer_Physical_Order=4*
G04 Layer_Color=8388736*
%FSLAX25Y25*%
%MOIN*%
G70*
G01*
G75*
%ADD60C,0.01000*%
%ADD81C,0.04000*%
%ADD82C,0.05181*%
%ADD84C,0.14173*%
%ADD85C,0.11024*%
%ADD86C,0.10236*%
%ADD87C,0.08661*%
%ADD89C,0.06693*%
%ADD90C,0.05118*%
%ADD93C,0.05512*%
%ADD96C,0.08268*%
%ADD97C,0.14961*%
%ADD98C,0.03150*%
G04:AMPARAMS|DCode=99|XSize=39.37mil|YSize=39.37mil|CornerRadius=0mil|HoleSize=0mil|Usage=FLASHONLY|Rotation=0.000|XOffset=0mil|YOffset=0mil|HoleType=Round|Shape=Relief|Width=5.91mil|Gap=3.94mil|Entries=4|*
%AMTHD99*
7,0,0,0.03937,0.03150,0.00591,45*
%
%ADD99THD99*%
%ADD100C,0.00850*%
%ADD101C,0.00850*%
%ADD102C,0.16929*%
%ADD103O,0.04724X0.06693*%
%ADD104O,0.04724X0.07480*%
%ADD105O,0.07087X0.04528*%
%ADD106O,0.07874X0.05709*%
G36*
X499998Y263781D02*
X499997D01*
X500000Y263781D01*
X499998Y263781D01*
D02*
G37*
G36*
X502297Y263478D02*
X503730Y262885D01*
X505020Y262023D01*
X505569Y261474D01*
X505569Y261474D01*
X519342Y247701D01*
X519343Y247701D01*
X519343Y247700D01*
X519344Y247699D01*
X519345Y247698D01*
X519345Y247698D01*
X519346Y247698D01*
X519346Y247697D01*
X519347Y247696D01*
X519348Y247695D01*
X519348Y247695D01*
X519348D01*
X519897Y247146D01*
X520759Y245856D01*
X521352Y244423D01*
X521655Y242902D01*
Y242126D01*
X521655D01*
Y242125D01*
X521655Y242121D01*
Y242118D01*
X521655Y242115D01*
Y242113D01*
Y195791D01*
Y195273D01*
X521387Y194271D01*
X520868Y193373D01*
X520135Y192640D01*
X519237Y192121D01*
X518235Y191853D01*
X517198D01*
X516196Y192121D01*
X515298Y192640D01*
X514565Y193373D01*
X514046Y194271D01*
X513778Y195273D01*
Y195791D01*
Y242118D01*
Y242119D01*
Y242120D01*
Y242121D01*
Y242122D01*
Y242122D01*
Y242123D01*
Y242123D01*
Y242124D01*
Y242125D01*
Y242125D01*
X513778D01*
X513778Y242125D01*
Y242125D01*
Y242123D01*
Y242121D01*
Y242119D01*
Y242118D01*
X513778D01*
X513778Y242125D01*
X513778Y242126D01*
X499999Y255904D01*
X499999D01*
X500001Y255903D01*
X500003Y255901D01*
X500005Y255898D01*
X500008Y255896D01*
X500009Y255895D01*
X499996Y255904D01*
X452340D01*
X451339Y256172D01*
X450441Y256691D01*
X449707Y257424D01*
X449189Y258322D01*
X448920Y259324D01*
Y260361D01*
X449189Y261363D01*
X449707Y262261D01*
X450441Y262994D01*
X451339Y263513D01*
X452340Y263781D01*
X499981D01*
X499982Y263781D01*
X499987D01*
X499990Y263781D01*
X499997D01*
X499992Y263781D01*
X500000D01*
Y263781D01*
X500776D01*
X502297Y263478D01*
D02*
G37*
G36*
X85719Y263697D02*
X85819Y263718D01*
X86021Y263749D01*
X86225Y263771D01*
X86429Y263781D01*
X135868D01*
X136629Y263630D01*
X137346Y263333D01*
X137991Y262902D01*
X138540Y262353D01*
X138971Y261708D01*
X139268Y260992D01*
X139419Y260230D01*
Y259843D01*
Y259455D01*
X139268Y258694D01*
X138971Y257977D01*
X138540Y257332D01*
X137991Y256783D01*
X137346Y256352D01*
X136629Y256055D01*
X135868Y255904D01*
X86539D01*
X48398Y217763D01*
X48398D01*
X48124Y217489D01*
X47479Y217058D01*
X46762Y216761D01*
X46001Y216610D01*
X1D01*
Y204521D01*
Y204003D01*
X-267Y203001D01*
X-785Y202103D01*
X-1519Y201370D01*
X-2417Y200851D01*
X-3419Y200583D01*
X-4456D01*
X-5457Y200851D01*
X-6355Y201370D01*
X-7089Y202103D01*
X-7607Y203001D01*
X-7876Y204003D01*
Y204521D01*
Y216615D01*
Y216616D01*
Y216617D01*
Y216618D01*
Y216619D01*
Y216619D01*
X-7875Y217394D01*
X-7571Y218915D01*
X-6977Y220346D01*
X-6114Y221635D01*
X-5018Y222731D01*
X-3728Y223591D01*
X-2296Y224184D01*
X-775Y224487D01*
X43982D01*
X82123Y262628D01*
Y262628D01*
X82470Y262975D01*
X83315Y263478D01*
X84257Y263758D01*
X85239Y263798D01*
X85719Y263697D01*
D02*
G37*
G36*
X500009Y255895D02*
X500009D01*
X500009Y255895D01*
X500009Y255895D01*
D02*
G37*
G36*
X437629Y263630D02*
X438345Y263333D01*
X438991Y262902D01*
X439539Y262353D01*
X439970Y261708D01*
X440267Y260992D01*
X440419Y260231D01*
Y259843D01*
Y259455D01*
X440268Y258694D01*
X439971Y257977D01*
X439540Y257332D01*
X438991Y256784D01*
X438346Y256353D01*
X437630Y256056D01*
X436869Y255904D01*
X436481Y255904D01*
X436481D01*
X151481Y255853D01*
X150962Y255853D01*
X149961Y256121D01*
X149063Y256639D01*
X148329Y257372D01*
X147810Y258270D01*
X147542Y259272D01*
X147542Y260309D01*
X147810Y261311D01*
X148328Y262209D01*
X149061Y262943D01*
X149959Y263461D01*
X150961Y263730D01*
X151480Y263730D01*
Y263730D01*
X436480Y263781D01*
X436868Y263781D01*
X437629Y263630D01*
D02*
G37*
G36*
X519346Y247697D02*
X519345Y247699D01*
X519343Y247701D01*
X519346Y247697D01*
D02*
G37*
G36*
X476827Y244762D02*
X472103D01*
Y250668D01*
X476827D01*
Y244762D01*
D02*
G37*
G36*
X519237Y183461D02*
X520135Y182943D01*
X520868Y182210D01*
X521387Y181312D01*
X521655Y180310D01*
Y179791D01*
X521655Y76791D01*
Y76273D01*
X521387Y75271D01*
X520868Y74373D01*
X520135Y73640D01*
X519237Y73121D01*
X518235Y72853D01*
X517198D01*
X516196Y73121D01*
X515298Y73640D01*
X514565Y74373D01*
X514046Y75271D01*
X513778Y76273D01*
Y76791D01*
X513778Y179791D01*
Y180310D01*
X514046Y181312D01*
X514565Y182210D01*
X515298Y182943D01*
X516196Y183461D01*
X517198Y183730D01*
X518235D01*
X519237Y183461D01*
D02*
G37*
G36*
X-2417Y192191D02*
X-1519Y191673D01*
X-785Y190939D01*
X-267Y190041D01*
X1Y189040D01*
Y188521D01*
X1Y67464D01*
Y66945D01*
X-267Y65944D01*
X-785Y65046D01*
X-1519Y64312D01*
X-2417Y63794D01*
X-3419Y63525D01*
X-4456D01*
X-5457Y63794D01*
X-6355Y64312D01*
X-7089Y65046D01*
X-7607Y65944D01*
X-7876Y66945D01*
Y67464D01*
X-7876Y188521D01*
Y189040D01*
X-7607Y190041D01*
X-7089Y190939D01*
X-6355Y191673D01*
X-5457Y192191D01*
X-4456Y192460D01*
X-3419D01*
X-2417Y192191D01*
D02*
G37*
G36*
X519237Y64461D02*
X520135Y63943D01*
X520868Y63210D01*
X521387Y62312D01*
X521655Y61310D01*
Y60791D01*
Y13801D01*
X521655Y13802D01*
X521655Y13805D01*
Y13807D01*
X521655Y13809D01*
X521655Y13810D01*
X521655Y13808D01*
X521655Y13804D01*
X521655Y13801D01*
Y13797D01*
X521655Y13795D01*
Y13797D01*
X521655Y13796D01*
Y13795D01*
Y13793D01*
X521655Y13789D01*
Y13785D01*
X521655Y13781D01*
Y13780D01*
Y13004D01*
X521352Y11482D01*
X520759Y10049D01*
X519897Y8759D01*
X519353Y8215D01*
X519356Y8219D01*
X519359Y8222D01*
X519361Y8223D01*
X519348Y8211D01*
X505582Y-5556D01*
X505582Y-5555D01*
X505584Y-5554D01*
X505586Y-5552D01*
X505587Y-5551D01*
X505588Y-5549D01*
X505588Y-5550D01*
X505587Y-5551D01*
X505579Y-5559D01*
X505578Y-5560D01*
X505577Y-5561D01*
X505576Y-5562D01*
X505574Y-5563D01*
X505575Y-5563D01*
X505577Y-5561D01*
X505577Y-5561D01*
X505576Y-5562D01*
X505575Y-5563D01*
X505574Y-5564D01*
X505573Y-5565D01*
X505572Y-5566D01*
X505571Y-5567D01*
X505570Y-5568D01*
X505569Y-5569D01*
X505569Y-5569D01*
X505582Y-5556D01*
D01*
X505581Y-5557D01*
X505581Y-5557D01*
X505580Y-5558D01*
X505579Y-5559D01*
X505579Y-5559D01*
X505578Y-5560D01*
X505575Y-5563D01*
X505573Y-5565D01*
X505570Y-5568D01*
X505569Y-5569D01*
X505022Y-6116D01*
X503736Y-6976D01*
X502307Y-7570D01*
X500789Y-7874D01*
X500024Y-7876D01*
X500025D01*
X500031Y-7876D01*
X500037Y-7875D01*
X500040Y-7875D01*
Y-7875D01*
X500036Y-7875D01*
X500028Y-7875D01*
X500020Y-7876D01*
X500012Y-7876D01*
X500008D01*
X500015Y-7876D01*
X500024Y-7876D01*
X500019Y-7876D01*
X500015Y-7876D01*
X451962D01*
X450960Y-7607D01*
X450062Y-7089D01*
X449329Y-6355D01*
X448810Y-5457D01*
X448542Y-4456D01*
Y-3419D01*
X448810Y-2417D01*
X449329Y-1519D01*
X450062Y-785D01*
X450960Y-267D01*
X451962Y1D01*
X499984D01*
X499989Y1D01*
X499993Y1D01*
X499999D01*
X500000Y1D01*
X500000D01*
X500000Y2D01*
X500001Y3D01*
X500002Y4D01*
X500003Y5D01*
X500004Y6D01*
X500003Y5D01*
X500002Y4D01*
X500001Y3D01*
X500000Y2D01*
X513778Y13780D01*
Y13781D01*
X513778Y13780D01*
Y13781D01*
X513778Y13783D01*
Y13785D01*
X513778Y13786D01*
Y13787D01*
X513778D01*
X513778Y13781D01*
Y13781D01*
Y13783D01*
Y13785D01*
Y13786D01*
Y13787D01*
Y13788D01*
X513778Y13790D01*
Y13792D01*
X513778Y13794D01*
Y13795D01*
X513778Y13795D01*
X513778D01*
Y60791D01*
Y61310D01*
X514046Y62312D01*
X514565Y63210D01*
X515298Y63943D01*
X516196Y64461D01*
X517198Y64730D01*
X518235D01*
X519237Y64461D01*
D02*
G37*
G36*
X513778Y13780D02*
X513777Y13779D01*
X513776Y13778D01*
X513769Y13771D01*
X513770Y13772D01*
X513772Y13774D01*
X513775Y13777D01*
X513776Y13778D01*
X513778Y13780D01*
Y13780D01*
D02*
G37*
G36*
X-2417Y55134D02*
X-1519Y54615D01*
X-785Y53882D01*
X-267Y52984D01*
X1Y51982D01*
Y51464D01*
Y39371D01*
X46001D01*
X46762Y39220D01*
X47479Y38923D01*
X48124Y38492D01*
X48398Y38218D01*
X86605Y11D01*
X86605Y11D01*
X86607Y10D01*
X86609Y7D01*
X86611Y5D01*
X86614Y3D01*
X86615Y1D01*
X86615D01*
X86605Y11D01*
D01*
X86615Y1D01*
X135951D01*
X136712Y-150D01*
X137429Y-447D01*
X138074Y-878D01*
X138623Y-1426D01*
X139054Y-2072D01*
X139351Y-2788D01*
X139502Y-3549D01*
Y-3937D01*
Y-4325D01*
X139351Y-5086D01*
X139054Y-5803D01*
X138623Y-6448D01*
X138074Y-6996D01*
X137429Y-7427D01*
X136712Y-7724D01*
X135951Y-7876D01*
X85839D01*
X84317Y-7573D01*
X82884Y-6979D01*
X81594Y-6117D01*
X81045Y-5569D01*
X81045Y-5569D01*
X81045Y-5568D01*
X81043Y-5567D01*
X81042Y-5566D01*
X81041Y-5565D01*
X81040Y-5564D01*
X81040Y-5563D01*
X81039Y-5562D01*
X81037Y-5561D01*
X81036Y-5560D01*
X81036Y-5559D01*
X43982Y31495D01*
X-776D01*
X-2297Y31797D01*
X-3731Y32391D01*
X-5020Y33253D01*
X-6117Y34350D01*
X-6979Y35640D01*
X-7573Y37073D01*
X-7876Y38594D01*
Y39370D01*
Y51464D01*
Y51982D01*
X-7607Y52984D01*
X-7089Y53882D01*
X-6355Y54615D01*
X-5457Y55134D01*
X-4456Y55402D01*
X-3419D01*
X-2417Y55134D01*
D02*
G37*
G36*
X437644Y-150D02*
X438361Y-447D01*
X439006Y-878D01*
X439555Y-1426D01*
X439986Y-2071D01*
X440283Y-2788D01*
X440434Y-3549D01*
Y-3937D01*
Y-4325D01*
X440283Y-5086D01*
X439986Y-5802D01*
X439555Y-6447D01*
X439007Y-6996D01*
X438362Y-7427D01*
X437645Y-7724D01*
X436884Y-7876D01*
X436496Y-7876D01*
X436496D01*
X151497Y-7927D01*
X150978Y-7927D01*
X149976Y-7659D01*
X149078Y-7141D01*
X148345Y-6407D01*
X147826Y-5509D01*
X147557Y-4508D01*
X147557Y-3471D01*
X147825Y-2469D01*
X148344Y-1571D01*
X149077Y-837D01*
X149975Y-319D01*
X150977Y-50D01*
X151495Y-50D01*
Y-50D01*
X436495Y1D01*
X436883Y1D01*
X437644Y-150D01*
D02*
G37*
%LPC*%
G36*
X521655Y242122D02*
X521655D01*
Y242122D01*
Y242121D01*
Y242120D01*
Y242119D01*
X521655Y242118D01*
Y242122D01*
D02*
G37*
G36*
X475553Y249234D02*
Y247315D01*
D01*
Y249234D01*
D02*
G37*
G36*
X475175D02*
X473378D01*
X474687D01*
X473378Y247311D01*
Y246806D01*
X474614D01*
Y246196D01*
X473378D01*
X475553D01*
Y247315D01*
X475175D01*
Y249234D01*
D02*
G37*
%LPD*%
G36*
X474614Y247315D02*
X473922D01*
X474614Y248345D01*
Y247315D01*
D02*
G37*
G36*
X475553Y246196D02*
X475175D01*
Y246806D01*
X475553D01*
Y246196D01*
D02*
G37*
%LPC*%
G36*
X521655Y13793D02*
Y13780D01*
X521655Y13759D01*
X521655Y13760D01*
X521655Y13766D01*
X521655Y13771D01*
Y13777D01*
X521655Y13780D01*
X521655Y13781D01*
Y13785D01*
X521655Y13789D01*
X521655Y13793D01*
D02*
G37*
G36*
X521655Y13759D02*
X521655Y13758D01*
X521655Y13758D01*
Y13759D01*
D02*
G37*
G36*
X519361Y8223D02*
X519361Y8223D01*
X519361Y8223D01*
X519361Y8223D01*
D02*
G37*
G36*
X500009Y11D02*
X500008Y10D01*
X500007Y9D01*
X500006Y8D01*
X500004Y7D01*
X500006Y8D01*
X500007Y9D01*
X500008Y10D01*
X500009Y11D01*
X500009Y11D01*
X500009Y11D01*
D02*
G37*
G36*
X505579Y-5559D02*
X505579Y-5559D01*
X505579Y-5559D01*
X505579Y-5559D01*
D02*
G37*
G36*
X505579Y-5559D02*
X505577Y-5561D01*
X505578Y-5560D01*
X505579Y-5559D01*
D02*
G37*
%LPD*%
D60*
X471781Y210630D02*
X486288Y196123D01*
X236000Y210630D02*
X471781Y210630D01*
X486288Y196123D02*
X506787Y175624D01*
Y152910D02*
Y175624D01*
Y60810D02*
Y152910D01*
D81*
X521655Y242118D02*
Y242122D01*
X521655D02*
X521655D01*
X521655Y242122D02*
Y242122D01*
Y242121D02*
Y242122D01*
Y242120D02*
Y242121D01*
Y242119D02*
Y242120D01*
Y242119D02*
X521655Y242118D01*
X521655Y13793D02*
X521655Y13789D01*
X521655Y13780D02*
Y13793D01*
X521655Y13759D02*
X521655Y13780D01*
X521655Y13759D02*
X521655Y13760D01*
X521655Y13766D01*
X521655Y13771D01*
Y13777D01*
X521655Y13780D01*
X521655Y13781D02*
X521655Y13780D01*
X521655Y13781D02*
Y13785D01*
X521655Y13789D02*
X521655Y13785D01*
X521655Y13758D02*
Y13759D01*
X521655Y13758D02*
X521655Y13759D01*
X521655Y13758D02*
X521655Y13758D01*
X519361Y8223D02*
X519361Y8223D01*
X519361Y8223D02*
X519361Y8223D01*
X519361Y8223D02*
X519361Y8223D01*
X500009Y11D02*
X500009Y11D01*
X500008Y10D02*
X500009Y11D01*
X500007Y9D02*
X500008Y10D01*
X500006Y8D02*
X500007Y9D01*
X500004Y7D02*
X500006Y8D01*
X500004Y7D02*
X500006Y8D01*
X500007Y9D01*
X500008Y10D01*
X500009Y11D01*
X500009Y11D01*
X505579Y-5559D02*
X505579Y-5559D01*
X505579Y-5559D02*
X505579Y-5559D01*
X505579Y-5559D02*
X505579Y-5559D01*
X505578Y-5560D02*
X505579Y-5559D01*
X505577Y-5561D02*
X505579Y-5559D01*
X505577Y-5561D02*
X505578Y-5560D01*
X436883Y1D02*
X437644Y-150D01*
X438361Y-447D01*
X439006Y-878D01*
X439555Y-1426D01*
X439986Y-2071D01*
X440283Y-2788D01*
X440434Y-3549D01*
Y-3937D02*
Y-3549D01*
Y-4325D02*
Y-3937D01*
X440283Y-5086D02*
X440434Y-4325D01*
X439986Y-5802D02*
X440283Y-5086D01*
X439555Y-6447D02*
X439986Y-5802D01*
X439007Y-6996D02*
X439555Y-6447D01*
X438362Y-7427D02*
X439007Y-6996D01*
X437645Y-7724D02*
X438362Y-7427D01*
X436884Y-7876D02*
X437645Y-7724D01*
X436496Y-7876D02*
X436884Y-7876D01*
X436496Y-7876D02*
X436496D01*
X151497Y-7927D02*
X436496Y-7876D01*
X150978Y-7927D02*
X151497Y-7927D01*
X149976Y-7659D02*
X150978Y-7927D01*
X149078Y-7141D02*
X149976Y-7659D01*
X148345Y-6407D02*
X149078Y-7141D01*
X147826Y-5509D02*
X148345Y-6407D01*
X147557Y-4508D02*
X147826Y-5509D01*
X147557Y-3471D02*
X147557Y-4508D01*
X147557Y-3471D02*
X147825Y-2469D01*
X148344Y-1571D01*
X149077Y-837D01*
X149975Y-319D01*
X150977Y-50D01*
X151495Y-50D01*
Y-50D01*
X436495Y1D01*
X436883Y1D01*
X-3419Y55402D02*
X-2417Y55134D01*
X-1519Y54615D01*
X-785Y53882D01*
X-267Y52984D01*
X1Y51982D01*
Y51464D02*
Y51982D01*
Y39371D02*
Y51464D01*
Y39371D02*
X46001D01*
X46762Y39220D01*
X47479Y38923D01*
X48124Y38492D01*
X48398Y38218D01*
X86605Y11D01*
X86605Y11D02*
X86605Y11D01*
X86605Y11D02*
X86607Y10D01*
X86609Y7D01*
X86611Y5D01*
X86614Y3D01*
X86615Y1D01*
X86615D01*
X135951D01*
X136712Y-150D01*
X137429Y-447D01*
X138074Y-878D01*
X138623Y-1426D01*
X139054Y-2072D01*
X139351Y-2788D01*
X139502Y-3549D01*
Y-3937D02*
Y-3549D01*
Y-4325D02*
Y-3937D01*
X139351Y-5086D02*
X139502Y-4325D01*
X139054Y-5803D02*
X139351Y-5086D01*
X138623Y-6448D02*
X139054Y-5803D01*
X138074Y-6996D02*
X138623Y-6448D01*
X137429Y-7427D02*
X138074Y-6996D01*
X136712Y-7724D02*
X137429Y-7427D01*
X135951Y-7876D02*
X136712Y-7724D01*
X85839Y-7876D02*
X135951D01*
X84317Y-7573D02*
X85839Y-7876D01*
X82884Y-6979D02*
X84317Y-7573D01*
X81594Y-6117D02*
X82884Y-6979D01*
X81045Y-5569D02*
X81594Y-6117D01*
X81045Y-5569D02*
X81045Y-5569D01*
X81045Y-5568D02*
X81045Y-5569D01*
X81043Y-5567D02*
X81045Y-5568D01*
X81042Y-5566D02*
X81043Y-5567D01*
X81041Y-5565D02*
X81042Y-5566D01*
X81040Y-5563D02*
X81041Y-5565D01*
X81039Y-5562D02*
X81040Y-5563D01*
X81037Y-5561D02*
X81039Y-5562D01*
X81036Y-5560D02*
X81037Y-5561D01*
X81036Y-5559D02*
X81036Y-5560D01*
X43982Y31495D02*
X81036Y-5559D01*
X-776Y31495D02*
X43982D01*
X-2297Y31797D02*
X-776Y31495D01*
X-3731Y32391D02*
X-2297Y31797D01*
X-5020Y33253D02*
X-3731Y32391D01*
X-6117Y34350D02*
X-5020Y33253D01*
X-6979Y35640D02*
X-6117Y34350D01*
X-7573Y37073D02*
X-6979Y35640D01*
X-7876Y38594D02*
X-7573Y37073D01*
X-7876Y38594D02*
Y39370D01*
Y51464D01*
Y51982D01*
X-7607Y52984D01*
X-7089Y53882D01*
X-6355Y54615D01*
X-5457Y55134D01*
X-4456Y55402D01*
X-3419D01*
X513778Y13780D02*
Y13780D01*
X513777Y13779D02*
X513778Y13780D01*
X513776Y13778D02*
X513777Y13779D01*
X513769Y13771D02*
X513776Y13778D01*
X513769Y13771D02*
X513770Y13772D01*
X513772Y13774D01*
X513775Y13777D01*
X513776Y13778D01*
X513778Y13780D01*
X518235Y64730D02*
X519237Y64461D01*
X520135Y63943D01*
X520868Y63210D01*
X521387Y62312D01*
X521655Y61310D01*
Y60791D02*
Y61310D01*
Y13801D02*
Y60791D01*
X521655Y13802D02*
X521655Y13801D01*
X521655Y13805D02*
X521655Y13802D01*
X521655Y13805D02*
Y13807D01*
X521655Y13809D02*
X521655Y13807D01*
X521655Y13810D02*
X521655Y13809D01*
X521655Y13810D02*
X521655Y13808D01*
X521655Y13804D01*
X521655Y13801D01*
Y13797D02*
Y13801D01*
Y13797D02*
X521655Y13795D01*
Y13797D01*
X521655Y13796D01*
Y13795D02*
Y13796D01*
Y13793D02*
Y13795D01*
Y13793D02*
X521655Y13789D01*
Y13785D02*
Y13789D01*
Y13785D02*
X521655Y13781D01*
Y13780D02*
Y13781D01*
Y13004D02*
Y13780D01*
X521352Y11482D02*
X521655Y13004D01*
X520759Y10049D02*
X521352Y11482D01*
X519897Y8759D02*
X520759Y10049D01*
X519353Y8215D02*
X519897Y8759D01*
X519353Y8215D02*
X519356Y8219D01*
X519359Y8222D01*
X519361Y8223D01*
X519348Y8211D02*
X519361Y8223D01*
X505582Y-5556D02*
X519348Y8211D01*
X505582Y-5556D02*
X505582Y-5555D01*
X505584Y-5554D01*
X505586Y-5552D01*
X505587Y-5551D01*
X505588Y-5549D01*
X505588Y-5550D02*
X505588Y-5549D01*
X505587Y-5551D02*
X505588Y-5550D01*
X505579Y-5559D02*
X505587Y-5551D01*
X505578Y-5560D02*
X505579Y-5559D01*
X505577Y-5561D02*
X505578Y-5560D01*
X505576Y-5562D02*
X505577Y-5561D01*
X505574Y-5563D02*
X505576Y-5562D01*
X505574Y-5563D02*
X505575Y-5563D01*
X505577Y-5561D01*
X505577Y-5561D02*
X505577Y-5561D01*
X505576Y-5562D02*
X505577Y-5561D01*
X505575Y-5563D02*
X505576Y-5562D01*
X505574Y-5564D02*
X505575Y-5563D01*
X505573Y-5565D02*
X505574Y-5564D01*
X505572Y-5566D02*
X505573Y-5565D01*
X505571Y-5567D02*
X505572Y-5566D01*
X505570Y-5568D02*
X505571Y-5567D01*
X505569Y-5569D02*
X505570Y-5568D01*
X505569Y-5569D02*
X505569Y-5569D01*
X505582Y-5556D01*
X505581Y-5557D02*
X505582Y-5556D01*
X505581Y-5557D02*
X505581Y-5557D01*
X505580Y-5558D02*
X505581Y-5557D01*
X505579Y-5559D02*
X505580Y-5558D01*
X505579Y-5559D02*
X505579Y-5559D01*
X505578Y-5560D02*
X505579Y-5559D01*
X505575Y-5563D02*
X505578Y-5560D01*
X505573Y-5565D02*
X505575Y-5563D01*
X505570Y-5568D02*
X505573Y-5565D01*
X505569Y-5569D02*
X505570Y-5568D01*
X505022Y-6116D02*
X505569Y-5569D01*
X503736Y-6976D02*
X505022Y-6116D01*
X502307Y-7570D02*
X503736Y-6976D01*
X500789Y-7874D02*
X502307Y-7570D01*
X500024Y-7876D02*
X500789Y-7874D01*
X500024Y-7876D02*
X500025D01*
X500031Y-7876D01*
X500037Y-7875D01*
X500040Y-7875D01*
Y-7875D01*
X500036Y-7875D02*
X500040Y-7875D01*
X500028Y-7875D02*
X500036Y-7875D01*
X500020Y-7876D02*
X500028Y-7875D01*
X500012Y-7876D02*
X500020Y-7876D01*
X500008Y-7876D02*
X500012D01*
X500008D02*
X500015Y-7876D01*
X500024Y-7876D01*
X500019Y-7876D02*
X500024Y-7876D01*
X500015Y-7876D02*
X500019Y-7876D01*
X451962Y-7876D02*
X500015D01*
X450960Y-7607D02*
X451962Y-7876D01*
X450062Y-7089D02*
X450960Y-7607D01*
X449329Y-6355D02*
X450062Y-7089D01*
X448810Y-5457D02*
X449329Y-6355D01*
X448542Y-4456D02*
X448810Y-5457D01*
X448542Y-4456D02*
Y-3419D01*
X448810Y-2417D01*
X449329Y-1519D01*
X450062Y-785D01*
X450960Y-267D01*
X451962Y1D01*
X499984D01*
X499989Y1D01*
X499993Y1D01*
X499999D01*
X500000Y1D01*
X500000D02*
X500000D01*
X500000D02*
X500000Y2D01*
X500001Y3D01*
X500002Y4D01*
X500003Y5D01*
X500004Y6D01*
X500003Y5D02*
X500004Y6D01*
X500002Y4D02*
X500003Y5D01*
X500001Y3D02*
X500002Y4D01*
X500000Y2D02*
X500001Y3D01*
X500000Y2D02*
X513778Y13780D01*
Y13781D01*
X513778Y13780D02*
X513778Y13781D01*
X513778Y13780D02*
Y13781D01*
X513778Y13783D02*
X513778Y13781D01*
X513778Y13783D02*
Y13785D01*
X513778Y13786D02*
X513778Y13785D01*
X513778Y13786D02*
Y13787D01*
X513778D01*
X513778Y13781D01*
Y13781D01*
Y13783D01*
Y13785D01*
Y13786D01*
Y13787D01*
Y13788D01*
X513778Y13790D01*
Y13792D01*
X513778Y13794D01*
Y13795D01*
X513778Y13795D01*
X513778D02*
X513778D01*
X513778D02*
Y60791D01*
Y61310D01*
X514046Y62312D01*
X514565Y63210D01*
X515298Y63943D01*
X516196Y64461D01*
X517198Y64730D01*
X518235D01*
X-3419Y192460D02*
X-2417Y192191D01*
X-1519Y191673D01*
X-785Y190939D01*
X-267Y190041D01*
X1Y189040D01*
Y188521D02*
Y189040D01*
X1Y67464D02*
X1Y188521D01*
X1Y66945D02*
Y67464D01*
X-267Y65944D02*
X1Y66945D01*
X-785Y65046D02*
X-267Y65944D01*
X-1519Y64312D02*
X-785Y65046D01*
X-2417Y63794D02*
X-1519Y64312D01*
X-3419Y63525D02*
X-2417Y63794D01*
X-4456Y63525D02*
X-3419D01*
X-5457Y63794D02*
X-4456Y63525D01*
X-6355Y64312D02*
X-5457Y63794D01*
X-7089Y65046D02*
X-6355Y64312D01*
X-7607Y65944D02*
X-7089Y65046D01*
X-7876Y66945D02*
X-7607Y65944D01*
X-7876Y66945D02*
Y67464D01*
X-7876Y188521D01*
Y189040D01*
X-7607Y190041D01*
X-7089Y190939D01*
X-6355Y191673D01*
X-5457Y192191D01*
X-4456Y192460D01*
X-3419D01*
X518235Y183730D02*
X519237Y183461D01*
X520135Y182943D01*
X520868Y182210D01*
X521387Y181312D01*
X521655Y180310D01*
Y179791D02*
Y180310D01*
Y179791D02*
X521655Y76791D01*
Y76273D02*
Y76791D01*
X521387Y75271D02*
X521655Y76273D01*
X520868Y74373D02*
X521387Y75271D01*
X520135Y73640D02*
X520868Y74373D01*
X519237Y73121D02*
X520135Y73640D01*
X518235Y72853D02*
X519237Y73121D01*
X517198Y72853D02*
X518235D01*
X516196Y73121D02*
X517198Y72853D01*
X515298Y73640D02*
X516196Y73121D01*
X514565Y74373D02*
X515298Y73640D01*
X514046Y75271D02*
X514565Y74373D01*
X513778Y76273D02*
X514046Y75271D01*
X513778Y76273D02*
Y76791D01*
X513778Y179791D02*
X513778Y76791D01*
X513778Y179791D02*
Y180310D01*
X514046Y181312D01*
X514565Y182210D01*
X515298Y182943D01*
X516196Y183461D01*
X517198Y183730D01*
X518235D01*
X519343Y247701D02*
X519346Y247697D01*
X519345Y247699D02*
X519346Y247697D01*
X519343Y247701D02*
X519345Y247699D01*
X436868Y263781D02*
X437629Y263630D01*
X438345Y263333D01*
X438991Y262902D01*
X439539Y262353D01*
X439970Y261708D01*
X440267Y260992D01*
X440419Y260231D01*
Y259843D02*
Y260231D01*
Y259455D02*
Y259843D01*
X440268Y258694D02*
X440419Y259455D01*
X439971Y257977D02*
X440268Y258694D01*
X439540Y257332D02*
X439971Y257977D01*
X438991Y256784D02*
X439540Y257332D01*
X438346Y256353D02*
X438991Y256784D01*
X437630Y256056D02*
X438346Y256353D01*
X436869Y255904D02*
X437630Y256056D01*
X436481Y255904D02*
X436869Y255904D01*
X436481Y255904D02*
X436481D01*
X151481Y255853D02*
X436481Y255904D01*
X150962Y255853D02*
X151481Y255853D01*
X149961Y256121D02*
X150962Y255853D01*
X149063Y256639D02*
X149961Y256121D01*
X148329Y257372D02*
X149063Y256639D01*
X147810Y258270D02*
X148329Y257372D01*
X147542Y259272D02*
X147810Y258270D01*
X147542Y260309D02*
X147542Y259272D01*
X147542Y260309D02*
X147810Y261311D01*
X148328Y262209D01*
X149061Y262943D01*
X149959Y263461D01*
X150961Y263730D01*
X151480Y263730D01*
Y263730D01*
X436480Y263781D01*
X436868Y263781D01*
X500009Y255895D02*
X500009Y255895D01*
X500009D02*
X500009D01*
X500009Y255895D02*
X500009Y255895D01*
X85239Y263798D02*
X85719Y263697D01*
X85819Y263718D01*
X86021Y263749D01*
X86225Y263771D01*
X86429Y263781D01*
X135868D01*
X136629Y263630D01*
X137346Y263333D01*
X137991Y262902D01*
X138540Y262353D01*
X138971Y261708D01*
X139268Y260992D01*
X139419Y260230D01*
Y259843D02*
Y260230D01*
Y259455D02*
Y259843D01*
X139268Y258694D02*
X139419Y259455D01*
X138971Y257977D02*
X139268Y258694D01*
X138540Y257332D02*
X138971Y257977D01*
X137991Y256783D02*
X138540Y257332D01*
X137346Y256352D02*
X137991Y256783D01*
X136629Y256055D02*
X137346Y256352D01*
X135868Y255904D02*
X136629Y256055D01*
X86539Y255904D02*
X135868D01*
X48398Y217763D02*
X86539Y255904D01*
X48398Y217763D02*
X48398D01*
X48124Y217489D02*
X48398Y217763D01*
X47479Y217058D02*
X48124Y217489D01*
X46762Y216761D02*
X47479Y217058D01*
X46001Y216610D02*
X46762Y216761D01*
X1Y216610D02*
X46001D01*
X1Y204521D02*
Y216610D01*
Y204003D02*
Y204521D01*
X-267Y203001D02*
X1Y204003D01*
X-785Y202103D02*
X-267Y203001D01*
X-1519Y201370D02*
X-785Y202103D01*
X-2417Y200851D02*
X-1519Y201370D01*
X-3419Y200583D02*
X-2417Y200851D01*
X-4456Y200583D02*
X-3419D01*
X-5457Y200851D02*
X-4456Y200583D01*
X-6355Y201370D02*
X-5457Y200851D01*
X-7089Y202103D02*
X-6355Y201370D01*
X-7607Y203001D02*
X-7089Y202103D01*
X-7876Y204003D02*
X-7607Y203001D01*
X-7876Y204003D02*
Y204521D01*
Y216615D01*
Y216616D01*
Y216617D01*
Y216618D01*
Y216619D01*
Y216619D01*
X-7875Y217394D01*
X-7571Y218915D01*
X-6977Y220346D01*
X-6114Y221635D01*
X-5018Y222731D01*
X-3728Y223591D01*
X-2296Y224184D01*
X-775Y224487D01*
X43982D01*
X82123Y262628D01*
Y262628D02*
Y262628D01*
Y262628D02*
X82470Y262975D01*
X83315Y263478D01*
X84257Y263758D01*
X85239Y263798D01*
X500776Y263781D02*
X502297Y263478D01*
X503730Y262885D01*
X505020Y262023D01*
X505569Y261474D01*
X505569Y261474D01*
X519342Y247701D01*
X519343Y247701D01*
X519343Y247700D01*
X519344Y247699D01*
X519345Y247698D01*
X519345Y247698D01*
X519346Y247698D01*
X519346Y247697D01*
X519347Y247696D01*
X519348Y247695D01*
X519348Y247695D01*
X519348D01*
X519897Y247146D01*
X520759Y245856D01*
X521352Y244423D01*
X521655Y242902D01*
Y242126D02*
Y242902D01*
Y242126D02*
X521655D01*
Y242125D02*
Y242126D01*
X521655Y242121D02*
X521655Y242125D01*
X521655Y242118D02*
Y242121D01*
X521655Y242115D02*
X521655Y242118D01*
X521655Y242113D02*
Y242115D01*
Y195791D02*
Y242113D01*
Y195273D02*
Y195791D01*
X521387Y194271D02*
X521655Y195273D01*
X520868Y193373D02*
X521387Y194271D01*
X520135Y192640D02*
X520868Y193373D01*
X519237Y192121D02*
X520135Y192640D01*
X518235Y191853D02*
X519237Y192121D01*
X517198Y191853D02*
X518235D01*
X516196Y192121D02*
X517198Y191853D01*
X515298Y192640D02*
X516196Y192121D01*
X514565Y193373D02*
X515298Y192640D01*
X514046Y194271D02*
X514565Y193373D01*
X513778Y195273D02*
X514046Y194271D01*
X513778Y195273D02*
Y195791D01*
Y242118D01*
Y242119D01*
Y242120D01*
Y242121D01*
Y242122D01*
Y242122D01*
Y242123D01*
Y242123D01*
Y242124D01*
Y242125D01*
Y242125D01*
X513778D01*
X513778Y242125D01*
Y242125D02*
Y242125D01*
Y242123D02*
Y242125D01*
Y242121D02*
Y242123D01*
Y242119D02*
Y242121D01*
Y242118D02*
Y242119D01*
Y242118D02*
X513778D01*
X513778Y242125D02*
X513778Y242118D01*
X513778Y242126D02*
X513778Y242125D01*
X499999Y255904D02*
X513778Y242126D01*
X499999Y255904D02*
X499999D01*
X499999D02*
X500001Y255903D01*
X500003Y255901D01*
X500005Y255898D01*
X500008Y255896D01*
X500009Y255895D01*
X499996Y255904D02*
X500009Y255895D01*
X452340Y255904D02*
X499996D01*
X451339Y256172D02*
X452340Y255904D01*
X450441Y256691D02*
X451339Y256172D01*
X449707Y257424D02*
X450441Y256691D01*
X449189Y258322D02*
X449707Y257424D01*
X448920Y259324D02*
X449189Y258322D01*
X448920Y259324D02*
Y260361D01*
X449189Y261363D01*
X449707Y262261D01*
X450441Y262994D01*
X451339Y263513D01*
X452340Y263781D01*
X499981D01*
X499982Y263781D01*
X499987D01*
X499990Y263781D01*
X499997D01*
X499992Y263781D02*
X499997Y263781D01*
X499992Y263781D02*
X500000D01*
Y263781D01*
X500776D01*
X499998Y263781D02*
X500000Y263781D01*
X499997Y263781D02*
X499998D01*
X499997D02*
X500000Y263781D01*
X552630Y-39579D02*
X552630Y295067D01*
X-39890D02*
X552630D01*
X-39890Y-39579D02*
Y295067D01*
Y-39579D02*
X552630D01*
X86605Y11D02*
X86615Y1D01*
X86605Y11D02*
X86615Y1D01*
X47244Y39370D02*
X86614Y0D01*
Y0D02*
Y0D01*
Y0D02*
X500000D01*
Y0D01*
X513780Y13780D01*
X513779D02*
X513780D01*
X513779Y242126D02*
X513779Y13780D01*
X513779Y242126D02*
X513779D01*
X500000Y255906D02*
X513779Y242126D01*
X500000Y255906D02*
Y255906D01*
X86539Y255906D02*
X500000D01*
X47244Y216611D02*
X86539Y255906D01*
X0Y216611D02*
X47244D01*
X0Y39370D02*
X0Y216611D01*
X0Y39370D02*
X47244D01*
D82*
X-51Y193491D02*
D03*
X-50Y195556D02*
D03*
X-51Y199601D02*
D03*
Y201682D02*
D03*
Y197520D02*
D03*
X-53Y191426D02*
D03*
X-51Y56434D02*
D03*
X-50Y58499D02*
D03*
X-51Y62544D02*
D03*
Y64625D02*
D03*
Y60463D02*
D03*
X-53Y54369D02*
D03*
X441450Y255957D02*
D03*
X443515Y255956D02*
D03*
X447561Y255957D02*
D03*
X449642D02*
D03*
X445479D02*
D03*
X439386Y255958D02*
D03*
X513831Y184761D02*
D03*
X513830Y186826D02*
D03*
X513831Y190872D02*
D03*
Y192953D02*
D03*
Y188791D02*
D03*
X513832Y182696D02*
D03*
X513831Y65761D02*
D03*
X513830Y67826D02*
D03*
X513831Y71872D02*
D03*
Y73953D02*
D03*
Y69791D02*
D03*
X513832Y63696D02*
D03*
X140533Y-51D02*
D03*
X142598Y-50D02*
D03*
X146644Y-51D02*
D03*
X148725D02*
D03*
X144563D02*
D03*
X138469Y-53D02*
D03*
X441466Y-51D02*
D03*
X443530Y-50D02*
D03*
X447576Y-51D02*
D03*
X449657D02*
D03*
X445495D02*
D03*
X439401Y-53D02*
D03*
X148575Y255907D02*
D03*
X142481Y255906D02*
D03*
X138319D02*
D03*
X140400D02*
D03*
X144446Y255904D02*
D03*
X146511Y255906D02*
D03*
D84*
X11068Y54172D02*
D03*
Y200629D02*
D03*
D85*
X24848Y50235D02*
D03*
Y205747D02*
D03*
D86*
X38627Y54172D02*
D03*
Y200629D02*
D03*
D87*
X24848Y77794D02*
D03*
Y93148D02*
D03*
Y108503D02*
D03*
Y123857D02*
D03*
Y139211D02*
D03*
Y154566D02*
D03*
Y169920D02*
D03*
Y185275D02*
D03*
X13037Y69133D02*
D03*
Y84881D02*
D03*
Y100629D02*
D03*
Y116377D02*
D03*
Y132125D02*
D03*
Y147873D02*
D03*
Y163621D02*
D03*
Y179369D02*
D03*
X493293Y57921D02*
D03*
X232972Y65610D02*
D03*
D89*
X414553Y57921D02*
D03*
X495964Y65610D02*
D03*
D90*
X283000Y13921D02*
D03*
Y6834D02*
D03*
X242055Y6834D02*
D03*
Y13920D02*
D03*
D93*
X493227Y227965D02*
D03*
Y208280D02*
D03*
D96*
X267609Y217623D02*
D03*
X286900D02*
D03*
X342554Y217622D02*
D03*
X361846D02*
D03*
D97*
X96016Y242126D02*
D03*
Y13780D02*
D03*
X391291Y242126D02*
D03*
X489717Y13780D02*
D03*
D98*
X438077Y6257D02*
D03*
X502953Y170269D02*
D03*
X503067Y157277D02*
D03*
X502953Y152946D02*
D03*
Y148616D02*
D03*
X483388Y140940D02*
D03*
X502902Y178931D02*
D03*
X502953Y174600D02*
D03*
Y161608D02*
D03*
X465686Y224709D02*
D03*
X395555Y62617D02*
D03*
X393390Y65323D02*
D03*
X270500Y30536D02*
D03*
X264600Y29340D02*
D03*
X293292Y176664D02*
D03*
X291622Y178334D02*
D03*
X333000Y150308D02*
D03*
Y158835D02*
D03*
X327000Y154835D02*
D03*
X323000D02*
D03*
X450098Y74836D02*
D03*
X447736D02*
D03*
X430800Y41962D02*
D03*
X139185Y149472D02*
D03*
X135316Y149484D02*
D03*
X131200Y149496D02*
D03*
X253200Y23214D02*
D03*
X147521Y194482D02*
D03*
Y190933D02*
D03*
X470700Y55254D02*
D03*
X470655Y58880D02*
D03*
X470600Y62136D02*
D03*
X210968Y152336D02*
D03*
X151500Y173435D02*
D03*
X142319Y23642D02*
D03*
X378300Y32969D02*
D03*
X378200Y37236D02*
D03*
X460659Y42636D02*
D03*
X289700Y50162D02*
D03*
X295500Y50323D02*
D03*
X325800Y24805D02*
D03*
X136177Y171019D02*
D03*
X127882D02*
D03*
X102414Y181295D02*
D03*
X102369Y185281D02*
D03*
X106354Y189336D02*
D03*
X216867Y94336D02*
D03*
X122000Y111458D02*
D03*
X123000Y114961D02*
D03*
X229402Y88836D02*
D03*
X227040D02*
D03*
X197221Y83521D02*
D03*
X227040Y70836D02*
D03*
X226863Y63802D02*
D03*
X239000Y55301D02*
D03*
X314000Y37420D02*
D03*
Y41410D02*
D03*
X226863Y38823D02*
D03*
Y43823D02*
D03*
Y48823D02*
D03*
Y53823D02*
D03*
Y58823D02*
D03*
X228000Y75253D02*
D03*
X309942Y74779D02*
D03*
X307000D02*
D03*
X321173D02*
D03*
X324115D02*
D03*
X338288D02*
D03*
X335346D02*
D03*
X161000Y170523D02*
D03*
X158000Y40836D02*
D03*
X160452Y57565D02*
D03*
X237026Y42836D02*
D03*
X263469Y55205D02*
D03*
X244586Y35468D02*
D03*
X174000Y125836D02*
D03*
X287000Y94088D02*
D03*
X244586Y88171D02*
D03*
X294000Y79836D02*
D03*
X357972Y87844D02*
D03*
X204000Y90723D02*
D03*
Y86662D02*
D03*
X242600Y75253D02*
D03*
X184112Y76836D02*
D03*
X197362Y156117D02*
D03*
X175943Y43307D02*
D03*
X190563Y56109D02*
D03*
X188000Y50323D02*
D03*
X65480Y68836D02*
D03*
X71134Y63182D02*
D03*
X126878Y37154D02*
D03*
X126401Y42229D02*
D03*
X223103Y101451D02*
D03*
X198880Y114630D02*
D03*
X160513Y161065D02*
D03*
X148128Y158458D02*
D03*
X194278Y167062D02*
D03*
X154447Y136823D02*
D03*
X157103Y138927D02*
D03*
X147521Y183835D02*
D03*
Y187384D02*
D03*
X151062Y149727D02*
D03*
X249339Y57133D02*
D03*
X195000Y110291D02*
D03*
X127064Y156323D02*
D03*
X141732Y161565D02*
D03*
X125000Y222867D02*
D03*
X92313Y222867D02*
D03*
X106354Y219382D02*
D03*
X105000Y230237D02*
D03*
X99000Y218836D02*
D03*
X163000Y23836D02*
D03*
X139441Y27877D02*
D03*
X145560Y27483D02*
D03*
X128636Y57921D02*
D03*
X61467Y124836D02*
D03*
X72199Y153323D02*
D03*
X87000Y77836D02*
D03*
X84000Y80836D02*
D03*
X74080Y85914D02*
D03*
X89002Y65836D02*
D03*
Y85914D02*
D03*
X156890Y85170D02*
D03*
X175165Y53836D02*
D03*
X396924Y87914D02*
D03*
X119000Y231836D02*
D03*
X108717Y207444D02*
D03*
X124082Y177926D02*
D03*
X44285Y106354D02*
D03*
X37000Y104723D02*
D03*
X37605Y154571D02*
D03*
Y142885D02*
D03*
X49668Y157171D02*
D03*
X47244Y162198D02*
D03*
X338879Y41585D02*
D03*
X332012Y43307D02*
D03*
X438287Y42323D02*
D03*
X339545Y25936D02*
D03*
X328531Y34348D02*
D03*
X135827Y106693D02*
D03*
X140157D02*
D03*
X144488D02*
D03*
X148819D02*
D03*
X153149D02*
D03*
X157480D02*
D03*
X135827Y111023D02*
D03*
X140157D02*
D03*
X144488D02*
D03*
X148819D02*
D03*
X153149D02*
D03*
X157480D02*
D03*
X135827Y115354D02*
D03*
X140157D02*
D03*
X144488D02*
D03*
X148819D02*
D03*
X153149D02*
D03*
X157480D02*
D03*
X135827Y119685D02*
D03*
X140157D02*
D03*
X144488D02*
D03*
X148819D02*
D03*
X153149D02*
D03*
X157480D02*
D03*
X135827Y124016D02*
D03*
X140157D02*
D03*
X144488D02*
D03*
X148819D02*
D03*
X153149D02*
D03*
X157480D02*
D03*
X135827Y128347D02*
D03*
X140157D02*
D03*
X144488D02*
D03*
X148819D02*
D03*
X153149D02*
D03*
X157480D02*
D03*
X280118Y157234D02*
D03*
Y161565D02*
D03*
Y165895D02*
D03*
X284449Y157234D02*
D03*
Y161565D02*
D03*
Y165895D02*
D03*
X288780Y157234D02*
D03*
Y161565D02*
D03*
Y165895D02*
D03*
X273078Y121107D02*
D03*
X338414Y222322D02*
D03*
X263469Y222323D02*
D03*
X218754Y217372D02*
D03*
X292914Y217323D02*
D03*
X406649Y217513D02*
D03*
X482324Y225406D02*
D03*
X439609Y155478D02*
D03*
X327030Y9802D02*
D03*
X278740Y56674D02*
D03*
X252595Y56749D02*
D03*
X268209Y57018D02*
D03*
X302851Y88954D02*
D03*
X456000Y72658D02*
D03*
X449034Y31542D02*
D03*
X460728Y31657D02*
D03*
X466658Y31764D02*
D03*
X149713Y50162D02*
D03*
X184112Y107599D02*
D03*
X174742Y132288D02*
D03*
X113855Y118803D02*
D03*
X115636Y145000D02*
D03*
X102708D02*
D03*
X102635Y150701D02*
D03*
X115563D02*
D03*
X422261Y228000D02*
D03*
X114000Y231836D02*
D03*
X109000D02*
D03*
X106400Y181341D02*
D03*
X106354Y185327D02*
D03*
X269687Y163533D02*
D03*
X268674Y156672D02*
D03*
X283563Y87685D02*
D03*
X276476Y75819D02*
D03*
X269389D02*
D03*
X262303D02*
D03*
X255216D02*
D03*
X248130D02*
D03*
X485529Y57202D02*
D03*
X381391Y44071D02*
D03*
X409008Y57018D02*
D03*
X416370Y200912D02*
D03*
X489215Y88000D02*
D03*
X486711Y90323D02*
D03*
X412456Y198000D02*
D03*
X259941Y102318D02*
D03*
X269023Y167062D02*
D03*
X298265Y198506D02*
D03*
X285700Y105746D02*
D03*
X228628Y202162D02*
D03*
X302344Y203000D02*
D03*
X482000Y87844D02*
D03*
X448350Y156117D02*
D03*
X446055Y167440D02*
D03*
X445443Y158993D02*
D03*
X448418Y160697D02*
D03*
Y164758D02*
D03*
X356791Y76090D02*
D03*
X389637Y34104D02*
D03*
X383000Y33047D02*
D03*
X427420Y41962D02*
D03*
X445332Y59518D02*
D03*
X437365Y59603D02*
D03*
X441000Y57565D02*
D03*
Y61913D02*
D03*
X271000Y104723D02*
D03*
X267900Y104923D02*
D03*
X77886Y136587D02*
D03*
X474877Y87914D02*
D03*
X467790D02*
D03*
X453617D02*
D03*
X446531D02*
D03*
X432357D02*
D03*
X418184D02*
D03*
X411098D02*
D03*
X389838D02*
D03*
X382751D02*
D03*
X375664D02*
D03*
X368578D02*
D03*
X361491D02*
D03*
X354405D02*
D03*
X347318D02*
D03*
X340231D02*
D03*
X333145D02*
D03*
X326058D02*
D03*
X318972D02*
D03*
X311885D02*
D03*
X424090Y57343D02*
D03*
X431176D02*
D03*
X483193Y43307D02*
D03*
X473744D02*
D03*
X466658D02*
D03*
X367445D02*
D03*
X353272D02*
D03*
X346185D02*
D03*
X317839D02*
D03*
X310752D02*
D03*
X303666D02*
D03*
X486451Y42512D02*
D03*
X420458Y42095D02*
D03*
X387149Y25381D02*
D03*
X384357D02*
D03*
X390015Y25344D02*
D03*
X394740D02*
D03*
X399464D02*
D03*
X404189D02*
D03*
X408913D02*
D03*
X294752Y7292D02*
D03*
X350886Y56916D02*
D03*
X433614Y169482D02*
D03*
X187077Y139350D02*
D03*
X182097Y139315D02*
D03*
X357774Y12037D02*
D03*
X457185Y42606D02*
D03*
X434671Y32465D02*
D03*
X281191Y35933D02*
D03*
X252854Y91142D02*
D03*
X488372Y31965D02*
D03*
X201262Y130603D02*
D03*
X268708Y146912D02*
D03*
X272369Y147023D02*
D03*
X268779Y153504D02*
D03*
X288000Y144902D02*
D03*
X275000Y133678D02*
D03*
X299453Y127323D02*
D03*
X345098Y205492D02*
D03*
X269879D02*
D03*
X362697Y235520D02*
D03*
X225000Y199262D02*
D03*
X175377Y101083D02*
D03*
X142740Y136823D02*
D03*
X165945Y122638D02*
D03*
X169795Y107323D02*
D03*
X159449Y136772D02*
D03*
X165492Y130315D02*
D03*
X133852Y69193D02*
D03*
X176245Y38616D02*
D03*
X154600Y50323D02*
D03*
X77676Y107424D02*
D03*
X308816Y168723D02*
D03*
X67000Y112571D02*
D03*
X66764Y142236D02*
D03*
X171000Y114592D02*
D03*
X147521Y93323D02*
D03*
X122650Y123022D02*
D03*
X125987Y122823D02*
D03*
X122650Y130323D02*
D03*
X126000Y133424D02*
D03*
X77697Y103975D02*
D03*
X77884Y133219D02*
D03*
X488000Y55323D02*
D03*
X311000Y229962D02*
D03*
X236000Y231123D02*
D03*
X288000Y235323D02*
D03*
X348263Y234323D02*
D03*
X356000Y234390D02*
D03*
X281191Y234798D02*
D03*
X273563Y234623D02*
D03*
X278800Y90723D02*
D03*
X264665Y94088D02*
D03*
X267027Y91607D02*
D03*
X445866Y162599D02*
D03*
X452460Y43504D02*
D03*
X445374D02*
D03*
X309100Y172490D02*
D03*
D99*
X503067Y165939D02*
D03*
X256800Y34302D02*
D03*
X262300Y12066D02*
D03*
X211655Y43820D02*
D03*
X128000Y177669D02*
D03*
X136082Y177836D02*
D03*
X223000Y78355D02*
D03*
X240551Y35516D02*
D03*
X248551D02*
D03*
X298000Y85402D02*
D03*
X173000Y158835D02*
D03*
X190000Y161065D02*
D03*
X132000Y177712D02*
D03*
X136161Y174724D02*
D03*
X114406Y169765D02*
D03*
X414625Y71423D02*
D03*
X186000Y179835D02*
D03*
X182097D02*
D03*
X188000Y183835D02*
D03*
X186000Y187836D02*
D03*
X182000D02*
D03*
X178000Y192835D02*
D03*
X171000Y183835D02*
D03*
Y187836D02*
D03*
X174000Y192835D02*
D03*
X195000Y105746D02*
D03*
X114406Y165616D02*
D03*
Y173913D02*
D03*
X103165Y165616D02*
D03*
Y169765D02*
D03*
Y173913D02*
D03*
X159039Y23951D02*
D03*
X125987Y30351D02*
D03*
X130535Y72534D02*
D03*
X314911Y152837D02*
D03*
X441561Y172836D02*
D03*
X266000Y144147D02*
D03*
X310007Y205634D02*
D03*
X264692Y180973D02*
D03*
X235584Y205907D02*
D03*
X423480Y205147D02*
D03*
X302057Y134279D02*
D03*
X296752Y134091D02*
D03*
X127287Y149516D02*
D03*
X44600Y120000D02*
D03*
X275554Y119095D02*
D03*
X282882Y18842D02*
D03*
X405071Y66880D02*
D03*
X485205Y72322D02*
D03*
X487212Y75073D02*
D03*
X489497Y72323D02*
D03*
X478500Y58323D02*
D03*
X284063Y144723D02*
D03*
X125487Y104923D02*
D03*
X142952Y149257D02*
D03*
X171000Y118117D02*
D03*
X144158Y93323D02*
D03*
X85000Y117410D02*
D03*
X85000Y98785D02*
D03*
X85000Y146004D02*
D03*
X85000Y127832D02*
D03*
X45173Y149583D02*
D03*
X57276Y98724D02*
D03*
X57315Y128152D02*
D03*
X301181Y175004D02*
D03*
X285925Y74814D02*
D03*
X302460Y74779D02*
D03*
X284744Y56109D02*
D03*
X301279Y56069D02*
D03*
X479626Y71823D02*
D03*
X477263Y75686D02*
D03*
X481988Y75685D02*
D03*
X480807Y55230D02*
D03*
X476082Y55205D02*
D03*
D100*
X177000Y179035D02*
X197427Y158608D01*
X487313Y41336D02*
X506787Y60810D01*
X203049Y41336D02*
X487313D01*
X197427Y46958D02*
X203049Y41336D01*
X197427Y46958D02*
Y158608D01*
D101*
X187665Y204309D02*
X193986Y210630D01*
X177000Y186836D02*
X182000Y191835D01*
X177000Y179035D02*
Y186836D01*
X182000Y191835D02*
Y192135D01*
Y198644D01*
X187665Y204309D01*
X193986Y210630D02*
X236000D01*
D102*
X453957Y214942D02*
D03*
D103*
X416061Y7473D02*
D03*
X373344D02*
D03*
D104*
X416061Y25189D02*
D03*
X373344D02*
D03*
D105*
X504053Y233379D02*
D03*
Y202867D02*
D03*
D106*
X489093Y232788D02*
D03*
Y203457D02*
D03*
M02*
