G04*
G04 #@! TF.GenerationSoftware,Altium Limited,Altium NEXUS,2.0.15 (191)*
G04*
G04 Layer_Color=32896*
%FSLAX25Y25*%
%MOIN*%
G70*
G01*
G75*
%ADD60C,0.01000*%
%ADD62C,0.00787*%
%ADD64C,0.00984*%
%ADD100C,0.00850*%
%ADD134C,0.00315*%
%ADD136C,0.00394*%
%ADD229C,0.02362*%
%ADD230C,0.01575*%
G36*
X410505Y26154D02*
D01*
D02*
G37*
D60*
X235266Y48823D02*
X235854Y48236D01*
X226100Y48823D02*
X235266D01*
X235700Y36436D02*
X236700D01*
X232800Y42136D02*
X236500D01*
X232200Y36436D02*
X235700D01*
X230600Y76536D02*
X235300D01*
X229812Y38823D02*
X232200Y36436D01*
X226200Y38823D02*
X229812D01*
X231112Y43823D02*
X232800Y42136D01*
X225800Y43823D02*
X231112D01*
X225800Y53836D02*
X235800D01*
X234888Y58823D02*
X235800Y59736D01*
X226100Y58823D02*
X234888D01*
X230100Y71136D02*
X235700D01*
X227900Y68936D02*
X230100Y71136D01*
X226000Y68936D02*
X227900D01*
X227700Y73636D02*
X230600Y76536D01*
X226000Y73636D02*
X227700D01*
X190411Y119713D02*
Y125012D01*
X177813Y119713D02*
Y125012D01*
D62*
X44047Y154576D02*
G03*
X44047Y154576I-79J0D01*
G01*
X417899Y32654D02*
G03*
X417899Y32654I-394J0D01*
G01*
X43885Y108463D02*
G03*
X43885Y108463I-79J0D01*
G01*
X211424Y134447D02*
X213983D01*
Y136613D01*
X211424Y145865D02*
X213983D01*
Y143699D02*
Y145865D01*
X205307Y36323D02*
X218693D01*
X205307Y76323D02*
X218693D01*
X195803Y85293D02*
X197968D01*
Y87852D01*
X186551Y85293D02*
X188717D01*
X186551D02*
Y87852D01*
X143909Y50875D02*
X158634D01*
Y30796D02*
Y50875D01*
X143909Y30796D02*
Y50875D01*
Y30796D02*
X158634D01*
X226512Y128527D02*
X229264D01*
X226512Y125771D02*
Y128527D01*
X235571D02*
X238323D01*
Y125771D02*
Y128527D01*
X75094Y72539D02*
X77846D01*
X75094Y69784D02*
Y72539D01*
X84154D02*
X86906D01*
Y69784D02*
Y72539D01*
X75094Y92154D02*
X77846D01*
X75094Y89398D02*
Y92154D01*
X84154D02*
X86905D01*
Y89398D02*
Y92154D01*
X375960Y44260D02*
X378125D01*
Y46819D01*
X366708Y44260D02*
X368873D01*
X366708D02*
Y46819D01*
X59480Y143875D02*
Y146040D01*
Y143875D02*
X62039D01*
X59480Y153127D02*
Y155292D01*
X62039D01*
X235961Y138935D02*
X238126D01*
Y141493D01*
X226709Y138935D02*
X228874D01*
X226709D02*
Y141493D01*
X59480Y114146D02*
Y116311D01*
Y114146D02*
X62040D01*
X59480Y123397D02*
Y125563D01*
X62040D01*
X176815Y160230D02*
Y162395D01*
Y160230D02*
X179374D01*
X176815Y169482D02*
Y171647D01*
X179374D01*
X104380Y41957D02*
X106545D01*
X104380Y39398D02*
Y41957D01*
X113632D02*
X115797D01*
Y39398D02*
Y41957D01*
X162268Y146906D02*
X164040D01*
Y149662D01*
X155379Y146906D02*
X157150D01*
X155379D02*
Y149662D01*
X168732Y152268D02*
X170503D01*
X168732Y149512D02*
Y152268D01*
X175622D02*
X177393D01*
Y149512D02*
Y152268D01*
X194819Y62874D02*
X196591D01*
Y65630D01*
X187929Y62874D02*
X189701D01*
X187929D02*
Y65630D01*
X227082Y91403D02*
Y93175D01*
Y91403D02*
X229838D01*
X227082Y98293D02*
Y100065D01*
X229838D01*
X227007Y109686D02*
Y111458D01*
Y109686D02*
X229762D01*
X227007Y116576D02*
Y118348D01*
X229762D01*
X98835Y74508D02*
X103165D01*
X98835Y65059D02*
X103165D01*
X98835Y94123D02*
X103165D01*
X98835Y84674D02*
X103165D01*
X122310Y68602D02*
Y72539D01*
X119062D02*
X122310D01*
X110499Y68602D02*
Y72539D01*
X113747D01*
X122310Y88217D02*
Y92154D01*
X119062D02*
X122310D01*
X110499Y88217D02*
Y92154D01*
X113747D01*
X181756Y186989D02*
Y189741D01*
X179000D02*
X181756D01*
Y177930D02*
Y180682D01*
X179000Y177930D02*
X181756D01*
X43848Y44757D02*
Y56072D01*
X3848Y44757D02*
X43848D01*
X3848D02*
Y56072D01*
X43848Y197804D02*
Y211257D01*
X3848D02*
X43848D01*
X3848Y197804D02*
Y211257D01*
X-78987Y44757D02*
X43848D01*
X-78987Y211257D02*
X43848D01*
X-78987Y44757D02*
Y211257D01*
X34441Y145127D02*
Y148080D01*
X39559Y149851D02*
Y151820D01*
X34441Y145127D02*
X38197D01*
X34441Y156544D02*
X38197D01*
X34441Y153592D02*
Y156544D01*
X409314Y33389D02*
X412505D01*
X409314D02*
Y70641D01*
X412505D01*
X495505Y33389D02*
X498534D01*
Y70654D01*
X495505D02*
X498521D01*
X56764Y128613D02*
X58299D01*
X68221D02*
X69756D01*
X56764Y141606D02*
X58299D01*
X68221D02*
X69756D01*
X56764Y128613D02*
Y129106D01*
Y141113D02*
Y141606D01*
X69756Y128613D02*
Y129106D01*
Y141113D02*
Y141606D01*
X145079Y78937D02*
X157677D01*
X145079Y59252D02*
X157677D01*
Y78937D01*
X145079Y59252D02*
Y78937D01*
X199564Y114204D02*
X219249D01*
X199564Y106330D02*
X219249D01*
X199564D02*
Y114204D01*
X219249Y106330D02*
Y114204D01*
X77921Y54311D02*
X93669D01*
X77921Y41516D02*
X93669D01*
X168110Y68898D02*
Y69291D01*
X172835Y68898D02*
Y69291D01*
X130315Y101181D02*
Y102559D01*
Y101181D02*
X131693D01*
X161614D02*
X162992D01*
Y102559D01*
Y132480D02*
Y133858D01*
X161614D02*
X162992D01*
X130315Y132480D02*
Y133858D01*
X131693D01*
X34294Y160190D02*
Y162789D01*
Y160190D02*
X37503D01*
X34294Y169088D02*
Y171686D01*
X37503D01*
X34279Y107479D02*
Y110432D01*
X38035D01*
X34279Y99014D02*
X38035D01*
X39397Y103739D02*
Y105707D01*
X34279Y99014D02*
Y101967D01*
X157331Y177930D02*
X160087D01*
Y180682D01*
X157331Y189741D02*
X160087D01*
Y186989D02*
Y189741D01*
X279457Y16086D02*
X286543D01*
X279457Y4472D02*
X286543D01*
X251467Y225891D02*
X259735D01*
X294774D02*
X303042D01*
X251467Y201481D02*
Y215261D01*
X303042Y201481D02*
Y215261D01*
X151303Y56208D02*
X151697D01*
X151303Y53058D02*
X151697D01*
X121654Y120374D02*
X122047D01*
X121654Y117224D02*
X122047D01*
X39559Y78214D02*
Y80812D01*
X36351D02*
X39559D01*
Y69316D02*
Y71915D01*
X36351Y69316D02*
X39559D01*
X34436Y83660D02*
Y86259D01*
Y83660D02*
X37645D01*
X34436Y92558D02*
Y95156D01*
X37645D01*
X157142Y160033D02*
X159898D01*
Y162785D01*
X157142Y171844D02*
X159898D01*
Y169092D02*
Y171844D01*
X238512Y4472D02*
X245598D01*
X238512Y16086D02*
X245598D01*
X182874Y97770D02*
X186811D01*
X182874Y109975D02*
X186811D01*
X182874Y97770D02*
Y109975D01*
X186811Y97770D02*
Y109975D01*
X56725Y99185D02*
X58260D01*
X68181D02*
X69717D01*
X56725Y112177D02*
X58260D01*
X68181D02*
X69717D01*
X56725Y99185D02*
Y99677D01*
Y111685D02*
Y112177D01*
X69717Y99185D02*
Y99677D01*
Y111685D02*
Y112177D01*
X183325Y132205D02*
X184899D01*
X183325Y112520D02*
X184899D01*
X326413Y225890D02*
X334680D01*
X369720D02*
X377987D01*
X326413Y201480D02*
Y215260D01*
X377987Y201480D02*
Y215260D01*
D64*
X207585Y132282D02*
G03*
X207585Y132282I-492J0D01*
G01*
X184878Y92183D02*
G03*
X184878Y92183I-492J0D01*
G01*
X140346Y30284D02*
G03*
X140346Y30284I-492J0D01*
G01*
X240394Y122287D02*
G03*
X240394Y122287I-492J0D01*
G01*
X88976Y66299D02*
G03*
X88976Y66299I-492J0D01*
G01*
X88976Y85914D02*
G03*
X88976Y85914I-492J0D01*
G01*
X365035Y51150D02*
G03*
X365035Y51150I-492J0D01*
G01*
X66862Y157457D02*
G03*
X66862Y157457I-492J0D01*
G01*
X225036Y145824D02*
G03*
X225036Y145824I-492J0D01*
G01*
X66862Y127728D02*
G03*
X66862Y127728I-492J0D01*
G01*
X184197Y173813D02*
G03*
X184197Y173813I-492J0D01*
G01*
X118455Y35067D02*
G03*
X118455Y35067I-492J0D01*
G01*
X154493Y153796D02*
G03*
X154493Y153796I-492J0D01*
G01*
X179263Y145378D02*
G03*
X179263Y145378I-492J0D01*
G01*
X187043Y69764D02*
G03*
X187043Y69764I-492J0D01*
G01*
X234464Y101443D02*
G03*
X234464Y101443I-492J0D01*
G01*
X234388Y119726D02*
G03*
X234388Y119726I-492J0D01*
G01*
X123885Y65787D02*
G03*
X123885Y65787I-492J0D01*
G01*
X123885Y85402D02*
G03*
X123885Y85402I-492J0D01*
G01*
X176008Y176351D02*
G03*
X176008Y176351I-492J0D01*
G01*
X141142Y58248D02*
G03*
X141142Y58248I-492J0D01*
G01*
X199052Y119519D02*
G03*
X199052Y119519I-492J0D01*
G01*
X128248Y101772D02*
G03*
X128248Y101772I-492J0D01*
G01*
X41282Y173419D02*
G03*
X41282Y173419I-492J0D01*
G01*
X391126Y58245D02*
G03*
X391126Y58245I-492J0D01*
G01*
X154339Y176351D02*
G03*
X154339Y176351I-492J0D01*
G01*
X33555Y67584D02*
G03*
X33555Y67584I-492J0D01*
G01*
X41424Y96889D02*
G03*
X41424Y96889I-492J0D01*
G01*
X154150Y158454D02*
G03*
X154150Y158454I-492J0D01*
G01*
X180315Y96884D02*
G03*
X180315Y96884I-492J0D01*
G01*
X179880Y108780D02*
G03*
X179880Y108780I-492J0D01*
G01*
D100*
X125800Y95236D02*
X129600D01*
X122300Y98736D02*
X125800Y95236D01*
X165500Y92936D02*
X167396Y94832D01*
Y109232D01*
X170400Y112235D01*
Y119035D01*
X170600Y103035D02*
X171500Y103936D01*
X170600Y92836D02*
Y103035D01*
D134*
X20005Y187036D02*
G03*
X20005Y187036I-2854J0D01*
G01*
Y170578D02*
G03*
X20005Y170578I-2854J0D01*
G01*
Y155335D02*
G03*
X20005Y155335I-2854J0D01*
G01*
Y108207D02*
G03*
X20005Y108207I-2854J0D01*
G01*
Y92836D02*
G03*
X20005Y92836I-2854J0D01*
G01*
X9854Y170578D02*
G03*
X9854Y170578I-2854J0D01*
G01*
Y108170D02*
G03*
X9854Y108170I-2854J0D01*
G01*
Y91607D02*
G03*
X9854Y91607I-2854J0D01*
G01*
Y76090D02*
G03*
X9854Y76090I-2854J0D01*
G01*
X144390Y54817D02*
G03*
X144390Y54817I-2854J0D01*
G01*
X136894Y81689D02*
G03*
X136894Y81689I-2854J0D01*
G01*
X136383Y95472D02*
G03*
X136383Y95472I-2854J0D01*
G01*
X136894Y88687D02*
G03*
X136894Y88687I-2854J0D01*
G01*
X92854Y101823D02*
G03*
X92854Y101823I-2854J0D01*
G01*
Y114595D02*
G03*
X92854Y114595I-2854J0D01*
G01*
X171081Y176836D02*
G03*
X171081Y176836I-2854J0D01*
G01*
X177421Y106323D02*
G03*
X177421Y106323I-2854J0D01*
G01*
X192854Y176836D02*
G03*
X192854Y176836I-2854J0D01*
G01*
X173454Y122823D02*
G03*
X173454Y122823I-2854J0D01*
G01*
X92854Y130950D02*
G03*
X92854Y130950I-2854J0D01*
G01*
X92854Y142873D02*
G03*
X92854Y142873I-2854J0D01*
G01*
X197920Y139012D02*
G03*
X197920Y139012I-2854J0D01*
G01*
X141817Y20836D02*
G03*
X141817Y20836I-2854J0D01*
G01*
X150855Y153687D02*
G03*
X150855Y153687I-2854J0D01*
G01*
X196349Y151458D02*
G03*
X196349Y151458I-2854J0D01*
G01*
X170491Y20836D02*
G03*
X170491Y20836I-2854J0D01*
G01*
X177416Y95898D02*
G03*
X177416Y95898I-2854J0D01*
G01*
X371531Y65818D02*
G03*
X371531Y65818I-2854J0D01*
G01*
X371458Y72088D02*
G03*
X371458Y72088I-2854J0D01*
G01*
X371454Y59436D02*
G03*
X371454Y59436I-2854J0D01*
G01*
X371531Y78309D02*
G03*
X371531Y78309I-2854J0D01*
G01*
X366558Y12037D02*
G03*
X366558Y12037I-2854J0D01*
G01*
X9854Y155402D02*
G03*
X9854Y155402I-2854J0D01*
G01*
D136*
X71528Y141606D02*
G03*
X71528Y141606I-197J0D01*
G01*
X71488Y112177D02*
G03*
X71488Y112177I-197J0D01*
G01*
X350521Y3247D02*
Y11121D01*
X342647Y3247D02*
X350521D01*
X303277Y55412D02*
Y57184D01*
X311151D01*
X256582Y77469D02*
X257239Y78125D01*
X258550D01*
X259206Y77469D01*
Y74845D01*
X258550Y74189D01*
X257239D01*
X256582Y74845D01*
Y76157D01*
X257894D01*
X255271Y74189D02*
Y78125D01*
X253303D01*
X252647Y77469D01*
Y76157D01*
X253303Y75501D01*
X255271D01*
X251335Y78125D02*
X250023D01*
X250679D01*
Y74189D01*
X251335D01*
X250023D01*
X246087Y78125D02*
X247399D01*
X248055Y77469D01*
Y74845D01*
X247399Y74189D01*
X246087D01*
X245431Y74845D01*
Y77469D01*
X246087Y78125D01*
X244119Y77469D02*
X243463Y78125D01*
X242151D01*
X241495Y77469D01*
Y76813D01*
X242151Y76157D01*
X242807D01*
X242151D01*
X241495Y75501D01*
Y74845D01*
X242151Y74189D01*
X243463D01*
X244119Y74845D01*
X237560Y74189D02*
X240184D01*
X237560Y76813D01*
Y77469D01*
X238216Y78125D01*
X239528D01*
X240184Y77469D01*
X256582Y71801D02*
X257239Y72457D01*
X258550D01*
X259206Y71801D01*
Y69178D01*
X258550Y68521D01*
X257239D01*
X256582Y69178D01*
Y70489D01*
X257894D01*
X255271Y68521D02*
Y72457D01*
X253303D01*
X252647Y71801D01*
Y70489D01*
X253303Y69833D01*
X255271D01*
X251335Y72457D02*
X250023D01*
X250679D01*
Y68521D01*
X251335D01*
X250023D01*
X246087Y72457D02*
X247399D01*
X248055Y71801D01*
Y69178D01*
X247399Y68521D01*
X246087D01*
X245431Y69178D01*
Y71801D01*
X246087Y72457D01*
X244119Y71801D02*
X243463Y72457D01*
X242151D01*
X241495Y71801D01*
Y71145D01*
X242151Y70489D01*
X242807D01*
X242151D01*
X241495Y69833D01*
Y69178D01*
X242151Y68521D01*
X243463D01*
X244119Y69178D01*
X240184Y71801D02*
X239528Y72457D01*
X238216D01*
X237560Y71801D01*
Y71145D01*
X238216Y70489D01*
X238872D01*
X238216D01*
X237560Y69833D01*
Y69178D01*
X238216Y68521D01*
X239528D01*
X240184Y69178D01*
X256582Y66133D02*
X257239Y66790D01*
X258550D01*
X259206Y66133D01*
Y63510D01*
X258550Y62854D01*
X257239D01*
X256582Y63510D01*
Y64822D01*
X257894D01*
X255271Y62854D02*
Y66790D01*
X253303D01*
X252647Y66133D01*
Y64822D01*
X253303Y64166D01*
X255271D01*
X251335Y66790D02*
X250023D01*
X250679D01*
Y62854D01*
X251335D01*
X250023D01*
X246087Y66790D02*
X247399D01*
X248055Y66133D01*
Y63510D01*
X247399Y62854D01*
X246087D01*
X245431Y63510D01*
Y66133D01*
X246087Y66790D01*
X244119Y66133D02*
X243463Y66790D01*
X242151D01*
X241495Y66133D01*
Y65478D01*
X242151Y64822D01*
X242807D01*
X242151D01*
X241495Y64166D01*
Y63510D01*
X242151Y62854D01*
X243463D01*
X244119Y63510D01*
X237560Y66790D02*
X238872Y66133D01*
X240184Y64822D01*
Y63510D01*
X239528Y62854D01*
X238216D01*
X237560Y63510D01*
Y64166D01*
X238216Y64822D01*
X240184D01*
X256582Y60466D02*
X257239Y61122D01*
X258550D01*
X259206Y60466D01*
Y57842D01*
X258550Y57186D01*
X257239D01*
X256582Y57842D01*
Y59154D01*
X257894D01*
X255271Y57186D02*
Y61122D01*
X253303D01*
X252647Y60466D01*
Y59154D01*
X253303Y58498D01*
X255271D01*
X251335Y61122D02*
X250023D01*
X250679D01*
Y57186D01*
X251335D01*
X250023D01*
X246087Y61122D02*
X247399D01*
X248055Y60466D01*
Y57842D01*
X247399Y57186D01*
X246087D01*
X245431Y57842D01*
Y60466D01*
X246087Y61122D01*
X244119Y60466D02*
X243463Y61122D01*
X242151D01*
X241495Y60466D01*
Y59810D01*
X242151Y59154D01*
X242807D01*
X242151D01*
X241495Y58498D01*
Y57842D01*
X242151Y57186D01*
X243463D01*
X244119Y57842D01*
X240184Y61122D02*
X237560D01*
Y60466D01*
X240184Y57842D01*
Y57186D01*
X256582Y54798D02*
X257239Y55454D01*
X258550D01*
X259206Y54798D01*
Y52174D01*
X258550Y51518D01*
X257239D01*
X256582Y52174D01*
Y53486D01*
X257894D01*
X255271Y51518D02*
Y55454D01*
X253303D01*
X252647Y54798D01*
Y53486D01*
X253303Y52830D01*
X255271D01*
X251335Y55454D02*
X250023D01*
X250679D01*
Y51518D01*
X251335D01*
X250023D01*
X246087Y55454D02*
X247399D01*
X248055Y54798D01*
Y52174D01*
X247399Y51518D01*
X246087D01*
X245431Y52174D01*
Y54798D01*
X246087Y55454D01*
X242151Y51518D02*
Y55454D01*
X244119Y53486D01*
X241495D01*
X240184Y54798D02*
X239528Y55454D01*
X238216D01*
X237560Y54798D01*
Y52174D01*
X238216Y51518D01*
X239528D01*
X240184Y52174D01*
Y54798D01*
X256582Y49130D02*
X257239Y49786D01*
X258550D01*
X259206Y49130D01*
Y46506D01*
X258550Y45850D01*
X257239D01*
X256582Y46506D01*
Y47818D01*
X257894D01*
X255271Y45850D02*
Y49786D01*
X253303D01*
X252647Y49130D01*
Y47818D01*
X253303Y47162D01*
X255271D01*
X251335Y49786D02*
X250023D01*
X250679D01*
Y45850D01*
X251335D01*
X250023D01*
X246087Y49786D02*
X247399D01*
X248055Y49130D01*
Y46506D01*
X247399Y45850D01*
X246087D01*
X245431Y46506D01*
Y49130D01*
X246087Y49786D01*
X242151Y45850D02*
Y49786D01*
X244119Y47818D01*
X241495D01*
X240184Y45850D02*
X238872D01*
X239528D01*
Y49786D01*
X240184Y49130D01*
X256582Y43462D02*
X257239Y44118D01*
X258550D01*
X259206Y43462D01*
Y40839D01*
X258550Y40183D01*
X257239D01*
X256582Y40839D01*
Y42151D01*
X257894D01*
X255271Y40183D02*
Y44118D01*
X253303D01*
X252647Y43462D01*
Y42151D01*
X253303Y41495D01*
X255271D01*
X251335Y44118D02*
X250023D01*
X250679D01*
Y40183D01*
X251335D01*
X250023D01*
X246087Y44118D02*
X247399D01*
X248055Y43462D01*
Y40839D01*
X247399Y40183D01*
X246087D01*
X245431Y40839D01*
Y43462D01*
X246087Y44118D01*
X244119Y40183D02*
X242807D01*
X243463D01*
Y44118D01*
X244119Y43462D01*
X238872Y40183D02*
Y44118D01*
X240840Y42151D01*
X238216D01*
X256582Y37795D02*
X257239Y38451D01*
X258550D01*
X259206Y37795D01*
Y35171D01*
X258550Y34515D01*
X257239D01*
X256582Y35171D01*
Y36483D01*
X257894D01*
X255271Y34515D02*
Y38451D01*
X253303D01*
X252647Y37795D01*
Y36483D01*
X253303Y35827D01*
X255271D01*
X251335Y38451D02*
X250023D01*
X250679D01*
Y34515D01*
X251335D01*
X250023D01*
X246087Y38451D02*
X247399D01*
X248055Y37795D01*
Y35171D01*
X247399Y34515D01*
X246087D01*
X245431Y35171D01*
Y37795D01*
X246087Y38451D01*
X244119Y34515D02*
X242807D01*
X243463D01*
Y38451D01*
X244119Y37795D01*
X238216Y38451D02*
X240840D01*
Y36483D01*
X239528Y37139D01*
X238872D01*
X238216Y36483D01*
Y35171D01*
X238872Y34515D01*
X240184D01*
X240840Y35171D01*
X227106Y28134D02*
Y24855D01*
X226450Y24199D01*
X225138D01*
X224482Y24855D01*
Y28134D01*
X223171Y24199D02*
Y26822D01*
X221859Y28134D01*
X220547Y26822D01*
Y24199D01*
Y26166D01*
X223171D01*
X219235Y24199D02*
Y28134D01*
X217267D01*
X216611Y27478D01*
Y26166D01*
X217267Y25510D01*
X219235D01*
X217923D02*
X216611Y24199D01*
X215299Y28134D02*
X212675D01*
X213987D01*
Y24199D01*
X211363Y26166D02*
X208740D01*
X204804Y27478D02*
X205460Y28134D01*
X206772D01*
X207428Y27478D01*
Y26822D01*
X206772Y26166D01*
X205460D01*
X204804Y25510D01*
Y24855D01*
X205460Y24199D01*
X206772D01*
X207428Y24855D01*
X203492Y28134D02*
X200868D01*
X202180D01*
Y24199D01*
X199556D02*
Y28134D01*
X196932Y24199D01*
Y28134D01*
X401242Y42765D02*
X398094D01*
X399143Y43815D01*
X398094Y44864D01*
X401242D01*
X398094Y45914D02*
X400193D01*
X401242Y46963D01*
X400193Y48013D01*
X398094D01*
X399668D01*
Y45914D01*
X398094Y49062D02*
X401242D01*
X398094Y51161D01*
X401242D01*
X398094Y55359D02*
X400193D01*
X401242Y56409D01*
X400193Y57458D01*
X398094D01*
X399668D01*
Y55359D01*
X400193Y60607D02*
Y59033D01*
X399668Y58508D01*
X398619D01*
X398094Y59033D01*
Y60607D01*
X400718Y62181D02*
X400193D01*
Y61657D01*
Y62706D01*
Y62181D01*
X398619D01*
X398094Y62706D01*
X206095Y31336D02*
X205045D01*
X205570D01*
Y34484D01*
X206095Y33959D01*
X201372Y34484D02*
X202421Y33959D01*
X203471Y32910D01*
Y31860D01*
X202946Y31336D01*
X201896D01*
X201372Y31860D01*
Y32385D01*
X201896Y32910D01*
X203471D01*
X222300Y31336D02*
X221251D01*
X221775D01*
Y34484D01*
X222300Y33959D01*
X217577Y34484D02*
X219676D01*
Y32910D01*
X218627Y33435D01*
X218102D01*
X217577Y32910D01*
Y31860D01*
X218102Y31336D01*
X219151D01*
X219676Y31860D01*
X203995Y78336D02*
X206095D01*
X203995Y80435D01*
Y80959D01*
X204520Y81484D01*
X205570D01*
X206095Y80959D01*
X218627Y78336D02*
X217577D01*
X218102D01*
Y81484D01*
X218627Y80959D01*
X249016Y24263D02*
Y20328D01*
X247704Y21640D01*
X246392Y20328D01*
Y24263D01*
X245080Y20328D02*
Y22951D01*
X243768Y24263D01*
X242456Y22951D01*
Y20328D01*
Y22296D01*
X245080D01*
X241144Y24263D02*
Y20328D01*
Y21640D01*
X238521Y24263D01*
X240488Y22296D01*
X238521Y20328D01*
X234585Y24263D02*
X237209D01*
Y20328D01*
X234585D01*
X237209Y22296D02*
X235897D01*
X294620Y23607D02*
X295276Y24263D01*
X296588D01*
X297244Y23607D01*
Y22951D01*
X296588Y22296D01*
X295276D01*
X294620Y21640D01*
Y20983D01*
X295276Y20328D01*
X296588D01*
X297244Y20983D01*
X293308Y24263D02*
Y20328D01*
Y22296D01*
X290685D01*
Y24263D01*
Y20328D01*
X289373Y24263D02*
Y20983D01*
X288717Y20328D01*
X287405D01*
X286749Y20983D01*
Y24263D01*
X285437D02*
X282813D01*
X284125D01*
Y20328D01*
X281501Y24263D02*
Y20328D01*
X279533D01*
X278877Y20983D01*
Y23607D01*
X279533Y24263D01*
X281501D01*
X275598D02*
X276909D01*
X277565Y23607D01*
Y20983D01*
X276909Y20328D01*
X275598D01*
X274942Y20983D01*
Y23607D01*
X275598Y24263D01*
X273630D02*
Y20328D01*
X272318Y21640D01*
X271006Y20328D01*
Y24263D01*
X269694Y20328D02*
Y24263D01*
X267070Y20328D01*
Y24263D01*
X281901Y211149D02*
X282950D01*
X282426D01*
Y208525D01*
X282950Y208000D01*
X283475D01*
X284000Y208525D01*
X278752Y211149D02*
X280851D01*
Y209574D01*
X279802Y210099D01*
X279277D01*
X278752Y209574D01*
Y208525D01*
X279277Y208000D01*
X280327D01*
X280851Y208525D01*
X277703Y210624D02*
X277178Y211149D01*
X276129D01*
X275604Y210624D01*
Y208525D01*
X276129Y208000D01*
X277178D01*
X277703Y208525D01*
Y210624D01*
X272455Y208000D02*
X274554D01*
X272455Y210099D01*
Y210624D01*
X272980Y211149D01*
X274029D01*
X274554Y210624D01*
X356901Y211149D02*
X357950D01*
X357426D01*
Y208525D01*
X357950Y208000D01*
X358475D01*
X359000Y208525D01*
X353752Y211149D02*
X355851D01*
Y209574D01*
X354802Y210099D01*
X354277D01*
X353752Y209574D01*
Y208525D01*
X354277Y208000D01*
X355327D01*
X355851Y208525D01*
X352703Y210624D02*
X352178Y211149D01*
X351129D01*
X350604Y210624D01*
Y208525D01*
X351129Y208000D01*
X352178D01*
X352703Y208525D01*
Y210624D01*
X349554Y208000D02*
X348505D01*
X349029D01*
Y211149D01*
X349554Y210624D01*
X153203Y77000D02*
X155827D01*
X156352Y76475D01*
Y75426D01*
X155827Y74901D01*
X153203D01*
X156352Y71752D02*
Y73851D01*
X154253Y71752D01*
X153728D01*
X153203Y72277D01*
Y73327D01*
X153728Y73851D01*
Y70703D02*
X153203Y70178D01*
Y69129D01*
X153728Y68604D01*
X155827D01*
X156352Y69129D01*
Y70178D01*
X155827Y70703D01*
X153728D01*
X156352Y67554D02*
Y66505D01*
Y67030D01*
X153203D01*
X153728Y67554D01*
X150278Y49919D02*
X152902D01*
X153427Y49394D01*
Y48345D01*
X152902Y47820D01*
X150278D01*
X153427Y44671D02*
Y46770D01*
X151328Y44671D01*
X150803D01*
X150278Y45196D01*
Y46246D01*
X150803Y46770D01*
Y43622D02*
X150278Y43097D01*
Y42048D01*
X150803Y41523D01*
X152902D01*
X153427Y42048D01*
Y43097D01*
X152902Y43622D01*
X150803D01*
Y40473D02*
X150278Y39948D01*
Y38899D01*
X150803Y38374D01*
X152902D01*
X153427Y38899D01*
Y39948D01*
X152902Y40473D01*
X150803D01*
X370800Y20284D02*
X368701D01*
X369750D01*
Y17136D01*
X367651D02*
Y20284D01*
X366077D01*
X365552Y19759D01*
Y18710D01*
X366077Y18185D01*
X367651D01*
X362929Y17136D02*
Y20284D01*
X364503Y18710D01*
X362404D01*
X361354Y17136D02*
X360305D01*
X360829D01*
Y20284D01*
X361354Y19759D01*
X358730D02*
X358206Y20284D01*
X357156D01*
X356631Y19759D01*
Y17660D01*
X357156Y17136D01*
X358206D01*
X358730Y17660D01*
Y19759D01*
X364371Y80348D02*
X362272D01*
X363322D01*
Y77199D01*
X361223D02*
Y80348D01*
X359648D01*
X359123Y79823D01*
Y78774D01*
X359648Y78249D01*
X361223D01*
X356500Y77199D02*
Y80348D01*
X358074Y78774D01*
X355975D01*
X354925Y79823D02*
X354401Y80348D01*
X353351D01*
X352826Y79823D01*
Y77724D01*
X353351Y77199D01*
X354401D01*
X354925Y77724D01*
Y79823D01*
X351777D02*
X351252Y80348D01*
X350202D01*
X349678Y79823D01*
Y79299D01*
X350202Y78774D01*
X350727D01*
X350202D01*
X349678Y78249D01*
Y77724D01*
X350202Y77199D01*
X351252D01*
X351777Y77724D01*
X364371Y61284D02*
X362272D01*
X363322D01*
Y58136D01*
X361223D02*
Y61284D01*
X359648D01*
X359123Y60759D01*
Y59710D01*
X359648Y59185D01*
X361223D01*
X356500Y58136D02*
Y61284D01*
X358074Y59710D01*
X355975D01*
X354925Y60759D02*
X354401Y61284D01*
X353351D01*
X352826Y60759D01*
Y58660D01*
X353351Y58136D01*
X354401D01*
X354925Y58660D01*
Y60759D01*
X349678Y58136D02*
X351777D01*
X349678Y60235D01*
Y60759D01*
X350202Y61284D01*
X351252D01*
X351777Y60759D01*
X364371Y74184D02*
X362272D01*
X363322D01*
Y71036D01*
X361223D02*
Y74184D01*
X359648D01*
X359123Y73659D01*
Y72610D01*
X359648Y72085D01*
X361223D01*
X356500Y71036D02*
Y74184D01*
X358074Y72610D01*
X355975D01*
X354925Y73659D02*
X354401Y74184D01*
X353351D01*
X352826Y73659D01*
Y71560D01*
X353351Y71036D01*
X354401D01*
X354925Y71560D01*
Y73659D01*
X351777Y71036D02*
X350727D01*
X351252D01*
Y74184D01*
X351777Y73659D01*
X364371Y67584D02*
X362272D01*
X363322D01*
Y64436D01*
X361223D02*
Y67584D01*
X359648D01*
X359123Y67059D01*
Y66010D01*
X359648Y65485D01*
X361223D01*
X356500Y64436D02*
Y67584D01*
X358074Y66010D01*
X355975D01*
X354925Y67059D02*
X354401Y67584D01*
X353351D01*
X352826Y67059D01*
Y64960D01*
X353351Y64436D01*
X354401D01*
X354925Y64960D01*
Y67059D01*
X351777D02*
X351252Y67584D01*
X350202D01*
X349678Y67059D01*
Y64960D01*
X350202Y64436D01*
X351252D01*
X351777Y64960D01*
Y67059D01*
X175051Y91660D02*
Y89561D01*
Y90611D01*
X178200D01*
Y88512D02*
X175051D01*
Y86937D01*
X175576Y86413D01*
X176626D01*
X177150Y86937D01*
Y88512D01*
X178200Y83264D02*
Y85363D01*
X176101Y83264D01*
X175576D01*
X175051Y83789D01*
Y84838D01*
X175576Y85363D01*
X178200Y82214D02*
Y81165D01*
Y81690D01*
X175051D01*
X175576Y82214D01*
Y79591D02*
X175051Y79066D01*
Y78016D01*
X175576Y77492D01*
X176101D01*
X176626Y78016D01*
X177150Y77492D01*
X177675D01*
X178200Y78016D01*
Y79066D01*
X177675Y79591D01*
X177150D01*
X176626Y79066D01*
X176101Y79591D01*
X175576D01*
X176626Y79066D02*
Y78016D01*
X186300Y22584D02*
X184201D01*
X185250D01*
Y19436D01*
X183151D02*
Y22584D01*
X181577D01*
X181052Y22060D01*
Y21010D01*
X181577Y20485D01*
X183151D01*
X177904Y19436D02*
X180003D01*
X177904Y21535D01*
Y22060D01*
X178428Y22584D01*
X179478D01*
X180003Y22060D01*
X176854Y19436D02*
X175805D01*
X176330D01*
Y22584D01*
X176854Y22060D01*
X174230Y22584D02*
X172131D01*
Y22060D01*
X174230Y19961D01*
Y19436D01*
X204444Y167545D02*
X203094Y165937D01*
X203769Y166741D01*
X206181Y164718D01*
X204832Y163110D02*
X202420Y165133D01*
X201408Y163927D01*
X201472Y163188D01*
X202276Y162514D01*
X203016Y162578D01*
X204028Y163784D01*
X201459Y159090D02*
X202808Y160698D01*
X199851Y160439D01*
X199449Y160776D01*
X199384Y161515D01*
X200059Y162320D01*
X200798Y162384D01*
X200784Y158286D02*
X200109Y157482D01*
X200447Y157884D01*
X198035Y159907D01*
X198774Y159972D01*
X195336Y156692D02*
X196413Y157158D01*
X197891Y157288D01*
X198695Y156613D01*
X198760Y155874D01*
X198085Y155070D01*
X197346Y155005D01*
X196944Y155342D01*
X196879Y156082D01*
X197891Y157288D01*
X146362Y157959D02*
X145013Y159567D01*
X145688Y158763D01*
X143276Y156739D01*
X141927Y158347D02*
X144339Y160371D01*
X143327Y161577D01*
X142587Y161642D01*
X141783Y160967D01*
X141719Y160228D01*
X142731Y159022D01*
X138554Y162367D02*
X139903Y160759D01*
X140161Y163717D01*
X140563Y164054D01*
X141303Y163989D01*
X141977Y163185D01*
X141913Y162446D01*
X137879Y163171D02*
X137204Y163975D01*
X137541Y163573D01*
X139953Y165597D01*
X139889Y164858D01*
X137255Y168813D02*
X138604Y167205D01*
X137398Y166193D01*
X137126Y167335D01*
X136788Y167737D01*
X136049Y167801D01*
X135245Y167127D01*
X135180Y166387D01*
X135855Y165583D01*
X136594Y165519D01*
X157150Y22384D02*
X155051D01*
X156101D01*
Y19236D01*
X154002D02*
Y22384D01*
X152427D01*
X151903Y21859D01*
Y20810D01*
X152427Y20285D01*
X154002D01*
X148754Y19236D02*
X150853D01*
X148754Y21335D01*
Y21859D01*
X149279Y22384D01*
X150328D01*
X150853Y21859D01*
X147705Y19236D02*
X146655D01*
X147180D01*
Y22384D01*
X147705Y21859D01*
X143507Y19236D02*
Y22384D01*
X145081Y20810D01*
X142982D01*
X205688Y154970D02*
X204339Y153362D01*
X205013Y154166D01*
X207425Y152142D01*
X206076Y150534D02*
X203664Y152558D01*
X202652Y151352D01*
X202717Y150613D01*
X203521Y149938D01*
X204260Y150003D01*
X205272Y151209D01*
X202703Y146514D02*
X204052Y148123D01*
X201095Y147864D01*
X200693Y148201D01*
X200628Y148940D01*
X201303Y149744D01*
X202042Y149809D01*
X202028Y145711D02*
X201354Y144906D01*
X201691Y145308D01*
X199279Y147332D01*
X200018Y147397D01*
X198332Y145387D02*
X197593Y145322D01*
X196918Y144518D01*
X196983Y143779D01*
X197385Y143442D01*
X198124Y143507D01*
X198461Y143909D01*
X198124Y143507D01*
X198189Y142767D01*
X198591Y142430D01*
X199330Y142494D01*
X200005Y143298D01*
X199940Y144038D01*
X105259Y153193D02*
X103441Y152144D01*
X104350Y152669D01*
X105924Y149942D01*
X104107Y148892D02*
X102532Y151619D01*
X101169Y150832D01*
X100977Y150115D01*
X101502Y149206D01*
X102218Y149014D01*
X103582Y149801D01*
X99562Y146269D02*
X101380Y147318D01*
X98512Y148086D01*
X98250Y148541D01*
X98442Y149258D01*
X99351Y149783D01*
X100068Y149590D01*
X98653Y145744D02*
X97744Y145219D01*
X98199Y145482D01*
X96624Y148208D01*
X97341Y148016D01*
X94563Y143382D02*
X96381Y144432D01*
X93513Y145200D01*
X93251Y145655D01*
X93443Y146371D01*
X94352Y146896D01*
X95069Y146704D01*
X104649Y139953D02*
X102831Y138903D01*
X103740Y139428D01*
X105315Y136701D01*
X103497Y135652D02*
X101923Y138379D01*
X100559Y137592D01*
X100367Y136875D01*
X100892Y135966D01*
X101609Y135774D01*
X102972Y136561D01*
X98952Y133028D02*
X100770Y134078D01*
X97903Y134846D01*
X97640Y135300D01*
X97832Y136017D01*
X98741Y136542D01*
X99458Y136350D01*
X98043Y132503D02*
X97134Y131978D01*
X97589Y132241D01*
X96015Y134968D01*
X96731Y134776D01*
X95771Y131191D02*
X94862Y130667D01*
X95317Y130929D01*
X93742Y133656D01*
X94459Y133464D01*
X164551Y91636D02*
Y89536D01*
Y90586D01*
X167700D01*
Y88487D02*
X164551D01*
Y86913D01*
X165076Y86388D01*
X166126D01*
X166650Y86913D01*
Y88487D01*
X167700Y83239D02*
Y85338D01*
X165601Y83239D01*
X165076D01*
X164551Y83764D01*
Y84814D01*
X165076Y85338D01*
X167700Y82190D02*
Y81140D01*
Y81665D01*
X164551D01*
X165076Y82190D01*
Y79566D02*
X164551Y79041D01*
Y77992D01*
X165076Y77467D01*
X167175D01*
X167700Y77992D01*
Y79041D01*
X167175Y79566D01*
X165076D01*
X201088Y192359D02*
X199739Y190751D01*
X200413Y191555D01*
X202825Y189532D01*
X201476Y187924D02*
X199064Y189947D01*
X198052Y188742D01*
X198117Y188002D01*
X198921Y187328D01*
X199660Y187392D01*
X200672Y188598D01*
X198103Y183904D02*
X199452Y185512D01*
X196495Y185253D01*
X196093Y185590D01*
X196028Y186329D01*
X196703Y187134D01*
X197442Y187198D01*
X195418Y184786D02*
X194679Y184722D01*
X194004Y183918D01*
X194069Y183178D01*
X195677Y181829D01*
X196416Y181894D01*
X197091Y182698D01*
X197026Y183437D01*
X195418Y184786D01*
X195002Y181025D02*
X195067Y180286D01*
X194393Y179482D01*
X193653Y179417D01*
X192045Y180766D01*
X191981Y181506D01*
X192655Y182310D01*
X193395Y182374D01*
X193797Y182037D01*
X193861Y181298D01*
X192849Y180092D01*
X169851Y91660D02*
Y89561D01*
Y90611D01*
X173000D01*
Y88512D02*
X169851D01*
Y86937D01*
X170376Y86413D01*
X171426D01*
X171950Y86937D01*
Y88512D01*
X173000Y83264D02*
Y85363D01*
X170901Y83264D01*
X170376D01*
X169851Y83789D01*
Y84838D01*
X170376Y85363D01*
Y82214D02*
X169851Y81690D01*
Y80640D01*
X170376Y80115D01*
X172475D01*
X173000Y80640D01*
Y81690D01*
X172475Y82214D01*
X170376D01*
Y79066D02*
X169851Y78541D01*
Y77492D01*
X170376Y76967D01*
X170901D01*
X171426Y77492D01*
X171950Y76967D01*
X172475D01*
X173000Y77492D01*
Y78541D01*
X172475Y79066D01*
X171950D01*
X171426Y78541D01*
X170901Y79066D01*
X170376D01*
X171426Y78541D02*
Y77492D01*
X166951Y195536D02*
Y193437D01*
Y194486D01*
X170100D01*
Y192387D02*
X166951D01*
Y190813D01*
X167476Y190288D01*
X168526D01*
X169051Y190813D01*
Y192387D01*
X170100Y187139D02*
Y189238D01*
X168001Y187139D01*
X167476D01*
X166951Y187664D01*
Y188714D01*
X167476Y189238D01*
Y186090D02*
X166951Y185565D01*
Y184516D01*
X167476Y183991D01*
X169575D01*
X170100Y184516D01*
Y185565D01*
X169575Y186090D01*
X167476D01*
X166951Y182941D02*
Y180842D01*
X167476D01*
X169575Y182941D01*
X170100D01*
X105670Y125166D02*
X103852Y124117D01*
X104761Y124641D01*
X106335Y121915D01*
X104517Y120865D02*
X102943Y123592D01*
X101580Y122805D01*
X101388Y122088D01*
X101912Y121179D01*
X102629Y120987D01*
X103993Y121774D01*
X99973Y118241D02*
X101791Y119291D01*
X98923Y120059D01*
X98661Y120513D01*
X98853Y121230D01*
X99762Y121755D01*
X100479Y121563D01*
X97752Y119989D02*
X97035Y120181D01*
X96126Y119656D01*
X95934Y118939D01*
X96984Y117121D01*
X97701Y116929D01*
X98609Y117454D01*
X98801Y118171D01*
X97752Y119989D01*
X92945Y117819D02*
X94763Y118869D01*
X95550Y117506D01*
X94379Y117435D01*
X93924Y117173D01*
X93732Y116456D01*
X94257Y115547D01*
X94974Y115355D01*
X95883Y115880D01*
X96075Y116597D01*
X105841Y112188D02*
X104023Y111138D01*
X104932Y111663D01*
X106506Y108936D01*
X104688Y107887D02*
X103114Y110614D01*
X101750Y109826D01*
X101558Y109110D01*
X102083Y108201D01*
X102800Y108009D01*
X104163Y108796D01*
X100143Y105263D02*
X101961Y106313D01*
X99094Y107081D01*
X98831Y107535D01*
X99024Y108252D01*
X99932Y108777D01*
X100649Y108585D01*
X97923Y107010D02*
X97206Y107203D01*
X96297Y106678D01*
X96105Y105961D01*
X97154Y104143D01*
X97871Y103951D01*
X98780Y104476D01*
X98972Y105193D01*
X97923Y107010D01*
X95144Y102377D02*
X93570Y105104D01*
X95721Y104527D01*
X93903Y103478D01*
X153155Y90384D02*
X151056D01*
X152106D01*
Y87236D01*
X150007D02*
Y90384D01*
X148432D01*
X147907Y89859D01*
Y88810D01*
X148432Y88285D01*
X150007D01*
X144759Y87236D02*
X146858D01*
X144759Y89335D01*
Y89859D01*
X145284Y90384D01*
X146333D01*
X146858Y89859D01*
X143709D02*
X143185Y90384D01*
X142135D01*
X141610Y89859D01*
Y87760D01*
X142135Y87236D01*
X143185D01*
X143709Y87760D01*
Y89859D01*
X140561D02*
X140036Y90384D01*
X138987D01*
X138462Y89859D01*
Y89335D01*
X138987Y88810D01*
X139511D01*
X138987D01*
X138462Y88285D01*
Y87760D01*
X138987Y87236D01*
X140036D01*
X140561Y87760D01*
X121700Y102684D02*
X119601D01*
X120650D01*
Y99536D01*
X118551D02*
Y102684D01*
X116977D01*
X116452Y102159D01*
Y101110D01*
X116977Y100585D01*
X118551D01*
X113304Y99536D02*
X115403D01*
X113304Y101635D01*
Y102159D01*
X113829Y102684D01*
X114878D01*
X115403Y102159D01*
X112254D02*
X111730Y102684D01*
X110680D01*
X110155Y102159D01*
Y100060D01*
X110680Y99536D01*
X111730D01*
X112254Y100060D01*
Y102159D01*
X107007Y99536D02*
X109106D01*
X107007Y101635D01*
Y102159D01*
X107531Y102684D01*
X108581D01*
X109106Y102159D01*
X152106Y83746D02*
X150007D01*
X151056D01*
Y80598D01*
X148957D02*
Y83746D01*
X147383D01*
X146858Y83222D01*
Y82172D01*
X147383Y81647D01*
X148957D01*
X143709Y80598D02*
X145808D01*
X143709Y82697D01*
Y83222D01*
X144234Y83746D01*
X145284D01*
X145808Y83222D01*
X142660D02*
X142135Y83746D01*
X141086D01*
X140561Y83222D01*
Y81123D01*
X141086Y80598D01*
X142135D01*
X142660Y81123D01*
Y83222D01*
X139511Y80598D02*
X138462D01*
X138987D01*
Y83746D01*
X139511Y83222D01*
X137200Y59622D02*
X135101D01*
X136151D01*
Y56473D01*
X134051D02*
Y59622D01*
X132477D01*
X131952Y59097D01*
Y58048D01*
X132477Y57523D01*
X134051D01*
X128804Y56473D02*
X130903D01*
X128804Y58572D01*
Y59097D01*
X129329Y59622D01*
X130378D01*
X130903Y59097D01*
X127754D02*
X127229Y59622D01*
X126180D01*
X125655Y59097D01*
Y56998D01*
X126180Y56473D01*
X127229D01*
X127754Y56998D01*
Y59097D01*
X124606D02*
X124081Y59622D01*
X123031D01*
X122507Y59097D01*
Y56998D01*
X123031Y56473D01*
X124081D01*
X124606Y56998D01*
Y59097D01*
D229*
X149008Y34733D02*
G03*
X149008Y34733I-1181J0D01*
G01*
X150197Y63189D02*
G03*
X150197Y63189I-1181J0D01*
G01*
D230*
X203501Y111054D02*
G03*
X203501Y111054I-787J0D01*
G01*
M02*
