G04*
G04 #@! TF.GenerationSoftware,Altium Limited,Altium NEXUS,2.0.15 (191)*
G04*
G04 Layer_Color=16711935*
%FSLAX25Y25*%
%MOIN*%
G70*
G01*
G75*
%ADD70C,0.04331*%
%ADD71C,0.06299*%
%ADD89C,0.06693*%
%ADD137C,0.07874*%
%ADD139R,0.02835X0.02835*%
%ADD140R,0.02953X0.02559*%
%ADD141R,0.02756X0.02362*%
%ADD142R,0.04331X0.05906*%
%ADD147R,0.05906X0.04331*%
%ADD148R,0.02559X0.02165*%
%ADD149R,0.02165X0.02559*%
%ADD150R,0.02559X0.02953*%
%ADD172R,0.03543X0.03937*%
G04:AMPARAMS|DCode=174|XSize=25.59mil|YSize=35.43mil|CornerRadius=3.92mil|HoleSize=0mil|Usage=FLASHONLY|Rotation=90.000|XOffset=0mil|YOffset=0mil|HoleType=Round|Shape=RoundedRectangle|*
%AMROUNDEDRECTD174*
21,1,0.02559,0.02760,0,0,90.0*
21,1,0.01776,0.03543,0,0,90.0*
1,1,0.00784,0.01380,0.00888*
1,1,0.00784,0.01380,-0.00888*
1,1,0.00784,-0.01380,-0.00888*
1,1,0.00784,-0.01380,0.00888*
%
%ADD174ROUNDEDRECTD174*%
%ADD179R,0.02835X0.02835*%
%ADD180R,0.03937X0.04331*%
%ADD181R,0.03937X0.03543*%
%ADD185R,0.01575X0.03150*%
%ADD187C,0.01587*%
%ADD189C,0.12205*%
%ADD190C,0.09055*%
%ADD191C,0.08268*%
%ADD192C,0.12611*%
%ADD193C,0.04724*%
G04:AMPARAMS|DCode=194|XSize=3.94mil|YSize=3.94mil|CornerRadius=0mil|HoleSize=0mil|Usage=FLASHONLY|Rotation=180.000|XOffset=0mil|YOffset=0mil|HoleType=Round|Shape=RoundedRectangle|*
%AMROUNDEDRECTD194*
21,1,0.00394,0.00394,0,0,180.0*
21,1,0.00394,0.00394,0,0,180.0*
1,1,0.00000,-0.00197,0.00197*
1,1,0.00000,0.00197,0.00197*
1,1,0.00000,0.00197,-0.00197*
1,1,0.00000,-0.00197,-0.00197*
%
%ADD194ROUNDEDRECTD194*%
%ADD195O,0.05118X0.07087*%
%ADD196O,0.05118X0.07874*%
%ADD197C,0.03543*%
%ADD198O,0.07480X0.04921*%
%ADD199O,0.08268X0.06102*%
%ADD200C,0.24016*%
%ADD201R,0.09843X0.03347*%
%ADD202R,0.05354X0.01811*%
%ADD203R,0.03551X0.04221*%
%ADD204R,0.02362X0.05315*%
%ADD205R,0.05315X0.02362*%
%ADD206R,0.04134X0.10630*%
%ADD207R,0.02559X0.05433*%
%ADD208R,0.04221X0.03551*%
%ADD209R,0.03150X0.02756*%
%ADD210R,0.04724X0.05906*%
%ADD211R,0.02756X0.10039*%
%ADD212R,0.17323X0.03347*%
%ADD213R,0.01575X0.06496*%
%ADD214R,0.05118X0.11221*%
%ADD215R,0.06181X0.08268*%
%ADD216R,0.03150X0.01575*%
%ADD217O,0.06102X0.02756*%
%ADD218O,0.02756X0.07874*%
%ADD219R,0.06102X0.13976*%
%ADD220R,0.05906X0.04528*%
%ADD221O,0.03740X0.01575*%
%ADD222O,0.01575X0.03740*%
%ADD223R,0.26181X0.26181*%
G04:AMPARAMS|DCode=224|XSize=59.06mil|YSize=45.28mil|CornerRadius=12.3mil|HoleSize=0mil|Usage=FLASHONLY|Rotation=180.000|XOffset=0mil|YOffset=0mil|HoleType=Round|Shape=RoundedRectangle|*
%AMROUNDEDRECTD224*
21,1,0.05906,0.02067,0,0,180.0*
21,1,0.03445,0.04528,0,0,180.0*
1,1,0.02461,-0.01722,0.01034*
1,1,0.02461,0.01722,0.01034*
1,1,0.02461,0.01722,-0.01034*
1,1,0.02461,-0.01722,-0.01034*
%
%ADD224ROUNDEDRECTD224*%
%ADD225R,0.05315X0.08268*%
%ADD226R,0.14173X0.08268*%
%ADD227R,0.05118X0.07480*%
D70*
X17151Y187036D02*
D03*
X17151Y170578D02*
D03*
X17151Y155335D02*
D03*
X17151Y108207D02*
D03*
X17151Y92835D02*
D03*
X7000Y170578D02*
D03*
Y108170D02*
D03*
Y91607D02*
D03*
X7000Y76090D02*
D03*
X141535Y54817D02*
D03*
X134040Y81688D02*
D03*
X133529Y95472D02*
D03*
X134040Y88687D02*
D03*
X90000Y101823D02*
D03*
Y114595D02*
D03*
X168226Y176836D02*
D03*
X174567Y106323D02*
D03*
X190000Y176836D02*
D03*
X170600Y122823D02*
D03*
X90000Y130950D02*
D03*
X90000Y142873D02*
D03*
X195065Y139012D02*
D03*
X138962Y20836D02*
D03*
X148000Y153687D02*
D03*
X193495Y151458D02*
D03*
X167636Y20836D02*
D03*
X174561Y95898D02*
D03*
X368676Y65818D02*
D03*
X368604Y72088D02*
D03*
X368600Y59436D02*
D03*
X368676Y78309D02*
D03*
X363703Y12037D02*
D03*
X7000Y155402D02*
D03*
D71*
X267609Y217623D02*
D03*
X286900D02*
D03*
X342554Y217622D02*
D03*
X361846D02*
D03*
D89*
X493293Y57921D02*
D03*
X232972Y65610D02*
D03*
D137*
X521134Y263571D02*
D03*
X-8394Y263571D02*
D03*
X-8394Y-8083D02*
D03*
X118110Y13780D02*
D03*
X460630D02*
D03*
X118110Y242127D02*
D03*
D139*
X170374Y55643D02*
D03*
Y59186D02*
D03*
X195000Y98461D02*
D03*
Y102005D02*
D03*
X74398Y103953D02*
D03*
Y107496D02*
D03*
X167788Y114563D02*
D03*
Y118107D02*
D03*
X74260Y133219D02*
D03*
Y136763D02*
D03*
X147696Y142216D02*
D03*
Y145760D02*
D03*
X195065Y125419D02*
D03*
Y128962D02*
D03*
X195065Y120071D02*
D03*
Y116527D02*
D03*
X187077Y155001D02*
D03*
Y151458D02*
D03*
D140*
X133858Y72658D02*
D03*
Y76595D02*
D03*
X133884Y61594D02*
D03*
Y65531D02*
D03*
X133408Y54204D02*
D03*
Y50267D02*
D03*
X128561D02*
D03*
Y54204D02*
D03*
X128356Y97256D02*
D03*
Y93319D02*
D03*
X127756Y63091D02*
D03*
Y67028D02*
D03*
X154331Y96198D02*
D03*
Y92261D02*
D03*
X159142Y96198D02*
D03*
Y92261D02*
D03*
X190000Y168650D02*
D03*
Y164713D02*
D03*
X52984Y111488D02*
D03*
Y107551D02*
D03*
X53000Y99874D02*
D03*
Y103811D02*
D03*
X125582Y112402D02*
D03*
Y108465D02*
D03*
X85000Y138948D02*
D03*
Y142885D02*
D03*
X85000Y110354D02*
D03*
Y114291D02*
D03*
X85000Y134887D02*
D03*
Y130950D02*
D03*
X85000Y105841D02*
D03*
Y101904D02*
D03*
X223579Y126241D02*
D03*
Y122304D02*
D03*
Y141911D02*
D03*
Y145848D02*
D03*
X53000Y141172D02*
D03*
Y137235D02*
D03*
X52835Y129400D02*
D03*
Y133337D02*
D03*
X127287Y142217D02*
D03*
Y146154D02*
D03*
X131224Y142216D02*
D03*
Y146153D02*
D03*
X135063Y142217D02*
D03*
Y146153D02*
D03*
X139000Y142217D02*
D03*
Y146154D02*
D03*
X142937Y142217D02*
D03*
Y146154D02*
D03*
X182612Y88470D02*
D03*
Y92407D02*
D03*
X182097Y147497D02*
D03*
Y143560D02*
D03*
X182112Y155198D02*
D03*
Y151261D02*
D03*
X404650Y58920D02*
D03*
Y62857D02*
D03*
D141*
Y54817D02*
D03*
Y51273D02*
D03*
D142*
X192260Y83521D02*
D03*
X196000Y92183D02*
D03*
X188520D02*
D03*
X372417Y42488D02*
D03*
X376157Y51150D02*
D03*
X368676D02*
D03*
X232418Y137163D02*
D03*
X236158Y145824D02*
D03*
X228678D02*
D03*
X110088Y43729D02*
D03*
X106348Y35067D02*
D03*
X113829D02*
D03*
D147*
X207093Y136416D02*
D03*
Y143896D02*
D03*
X215755Y140156D02*
D03*
X57709Y149583D02*
D03*
X66370Y145843D02*
D03*
Y153323D02*
D03*
X57709Y119854D02*
D03*
X66370Y116114D02*
D03*
Y123594D02*
D03*
X175043Y165938D02*
D03*
X183705Y162198D02*
D03*
Y169679D02*
D03*
D148*
X187077Y147498D02*
D03*
Y143954D02*
D03*
D149*
X127681Y138004D02*
D03*
X131224D02*
D03*
X165855Y165938D02*
D03*
X169399D02*
D03*
D150*
X133968Y27877D02*
D03*
X130032D02*
D03*
X133968Y45937D02*
D03*
X130032D02*
D03*
X108120Y29098D02*
D03*
X112057D02*
D03*
X169596Y170523D02*
D03*
X165658D02*
D03*
X52565Y120002D02*
D03*
X48628D02*
D03*
X216729Y126015D02*
D03*
X212792D02*
D03*
X212854Y130603D02*
D03*
X216791D02*
D03*
X227040Y104836D02*
D03*
X223103D02*
D03*
X52228Y149583D02*
D03*
X48291D02*
D03*
X205324Y130602D02*
D03*
X209261D02*
D03*
X133968Y32483D02*
D03*
X130032D02*
D03*
X133968Y37154D02*
D03*
X130032D02*
D03*
X133968Y41585D02*
D03*
X130032D02*
D03*
X194117Y77553D02*
D03*
X190180D02*
D03*
X168631Y48513D02*
D03*
X172569D02*
D03*
X162841Y27888D02*
D03*
X158904D02*
D03*
X168596Y38691D02*
D03*
X172533D02*
D03*
X172533Y43395D02*
D03*
X168596D02*
D03*
D172*
X328553Y30451D02*
D03*
X320915Y55412D02*
D03*
X335915D02*
D03*
X339576Y30451D02*
D03*
X317529D02*
D03*
X325639Y55412D02*
D03*
D174*
X179823Y100132D02*
D03*
Y103872D02*
D03*
Y107612D02*
D03*
X189862D02*
D03*
Y100132D02*
D03*
D179*
X149500Y27483D02*
D03*
X153043D02*
D03*
X147638Y96630D02*
D03*
X144094D02*
D03*
X44412Y111463D02*
D03*
X47955D02*
D03*
X44457Y99874D02*
D03*
X48000D02*
D03*
X205496Y126077D02*
D03*
X201953D02*
D03*
X44734Y141078D02*
D03*
X48278D02*
D03*
X44778Y129227D02*
D03*
X48322D02*
D03*
X366240Y235520D02*
D03*
X369783D02*
D03*
X290945Y235323D02*
D03*
X294488D02*
D03*
D180*
X154650Y54633D02*
D03*
X148351D02*
D03*
X125000Y118799D02*
D03*
X118701D02*
D03*
D181*
X32916Y165938D02*
D03*
X40790Y162198D02*
D03*
Y169679D02*
D03*
X40937Y75064D02*
D03*
X33063Y78804D02*
D03*
Y71324D02*
D03*
X33058Y89408D02*
D03*
X40932Y85668D02*
D03*
Y93148D02*
D03*
D185*
X393390Y53323D02*
D03*
X395555D02*
D03*
X393390Y58244D02*
D03*
X395555D02*
D03*
D187*
X-51Y193491D02*
D03*
X-50Y195556D02*
D03*
X-51Y199601D02*
D03*
Y201682D02*
D03*
Y197520D02*
D03*
X-53Y191426D02*
D03*
X-51Y56434D02*
D03*
X-50Y58499D02*
D03*
X-51Y62544D02*
D03*
Y64625D02*
D03*
Y60463D02*
D03*
X-53Y54369D02*
D03*
X441450Y255957D02*
D03*
X443515Y255956D02*
D03*
X447561Y255957D02*
D03*
X449642D02*
D03*
X445479D02*
D03*
X439386Y255958D02*
D03*
X513831Y184761D02*
D03*
X513830Y186826D02*
D03*
X513831Y190872D02*
D03*
Y192953D02*
D03*
Y188791D02*
D03*
X513832Y182696D02*
D03*
X513831Y65761D02*
D03*
X513830Y67826D02*
D03*
X513831Y71872D02*
D03*
Y73953D02*
D03*
Y69791D02*
D03*
X513832Y63696D02*
D03*
X140533Y-51D02*
D03*
X142598Y-50D02*
D03*
X146644Y-51D02*
D03*
X148725D02*
D03*
X144563D02*
D03*
X138469Y-53D02*
D03*
X441466Y-51D02*
D03*
X443530Y-50D02*
D03*
X447576Y-51D02*
D03*
X449657D02*
D03*
X445495D02*
D03*
X439401Y-53D02*
D03*
X148575Y255907D02*
D03*
X142481Y255906D02*
D03*
X138319D02*
D03*
X140400D02*
D03*
X144446Y255904D02*
D03*
X146511Y255906D02*
D03*
D189*
X11068Y54172D02*
D03*
D190*
X24848Y50235D02*
D03*
Y205747D02*
D03*
D191*
X38627Y54172D02*
D03*
Y200629D02*
D03*
X24848Y77794D02*
D03*
Y93148D02*
D03*
Y108503D02*
D03*
Y123857D02*
D03*
Y139211D02*
D03*
Y154566D02*
D03*
Y169920D02*
D03*
Y185275D02*
D03*
X13037Y69133D02*
D03*
Y84881D02*
D03*
Y100629D02*
D03*
Y116377D02*
D03*
Y132125D02*
D03*
Y147873D02*
D03*
Y163621D02*
D03*
Y179369D02*
D03*
D192*
X11068Y200629D02*
D03*
D193*
X414553Y57921D02*
D03*
X495964Y65610D02*
D03*
D194*
X283000Y13921D02*
D03*
Y6834D02*
D03*
X242055Y6834D02*
D03*
Y13920D02*
D03*
D195*
X416061Y7473D02*
D03*
X373344D02*
D03*
D196*
X416061Y25189D02*
D03*
X373344D02*
D03*
D197*
X493227Y227965D02*
D03*
Y208280D02*
D03*
D198*
X504053Y233379D02*
D03*
Y202867D02*
D03*
D199*
X489093Y232788D02*
D03*
Y203457D02*
D03*
D200*
X453957Y214942D02*
D03*
X96016Y242126D02*
D03*
Y13780D02*
D03*
X391291Y242126D02*
D03*
X489717Y13780D02*
D03*
D201*
X219677Y68823D02*
D03*
Y63823D02*
D03*
Y58823D02*
D03*
Y38823D02*
D03*
Y43823D02*
D03*
Y48823D02*
D03*
Y53823D02*
D03*
Y73823D02*
D03*
X204323Y58823D02*
D03*
Y73823D02*
D03*
Y68823D02*
D03*
Y63823D02*
D03*
Y53823D02*
D03*
Y48823D02*
D03*
Y43823D02*
D03*
Y38823D02*
D03*
D202*
X162689Y48513D02*
D03*
X139854Y33158D02*
D03*
Y35717D02*
D03*
Y38276D02*
D03*
Y40836D02*
D03*
Y43395D02*
D03*
Y45954D02*
D03*
Y48513D02*
D03*
X162689Y33158D02*
D03*
Y35717D02*
D03*
Y38276D02*
D03*
Y40836D02*
D03*
Y43395D02*
D03*
Y45954D02*
D03*
D203*
X232418Y129255D02*
D03*
X228678Y122287D02*
D03*
X236158D02*
D03*
X81000Y73268D02*
D03*
X77260Y66299D02*
D03*
X84740D02*
D03*
X81000Y92882D02*
D03*
X77260Y85914D02*
D03*
X84740D02*
D03*
D204*
X159709Y145331D02*
D03*
X162268Y153796D02*
D03*
X157150D02*
D03*
X173063Y153843D02*
D03*
X170503Y145378D02*
D03*
X175622D02*
D03*
X192260Y61299D02*
D03*
X194819Y69764D02*
D03*
X189701D02*
D03*
D205*
X225508Y95734D02*
D03*
X233972Y93175D02*
D03*
Y98293D02*
D03*
X225432Y114017D02*
D03*
X233896Y111458D02*
D03*
Y116576D02*
D03*
D206*
X106512Y69784D02*
D03*
X95488D02*
D03*
X106512Y89398D02*
D03*
X95488D02*
D03*
D207*
X120145Y65787D02*
D03*
X112664D02*
D03*
X116405Y73780D02*
D03*
X120145Y85402D02*
D03*
X112664D02*
D03*
X116405Y93394D02*
D03*
D208*
X182484Y183835D02*
D03*
X175516Y187576D02*
D03*
Y180095D02*
D03*
X153847D02*
D03*
Y187576D02*
D03*
X160815Y183835D02*
D03*
X153658Y162198D02*
D03*
Y169679D02*
D03*
X160627Y165938D02*
D03*
D209*
X33063Y150836D02*
D03*
X40937Y154576D02*
D03*
Y147095D02*
D03*
X40775Y100983D02*
D03*
Y108463D02*
D03*
X32901Y104723D02*
D03*
D210*
X305443Y51869D02*
D03*
X348356D02*
D03*
D211*
X347175Y12302D02*
D03*
X306624D02*
D03*
D212*
X326899Y4723D02*
D03*
D213*
X417505Y37154D02*
D03*
X419474D02*
D03*
X421442D02*
D03*
X423411D02*
D03*
X425379D02*
D03*
X427348D02*
D03*
X437190D02*
D03*
X439159D02*
D03*
X441127D02*
D03*
X443096D02*
D03*
X445064D02*
D03*
X447033D02*
D03*
X449001D02*
D03*
X450970D02*
D03*
X452938D02*
D03*
X454907D02*
D03*
X456875D02*
D03*
X458844D02*
D03*
X460812D02*
D03*
X462781D02*
D03*
X464749D02*
D03*
X466718D02*
D03*
X468686D02*
D03*
X470655D02*
D03*
X472623D02*
D03*
X474592D02*
D03*
X476560D02*
D03*
X478529D02*
D03*
X480497D02*
D03*
X482466D02*
D03*
X484434D02*
D03*
X486403D02*
D03*
X488371D02*
D03*
X490340D02*
D03*
X418490Y66878D02*
D03*
X420458D02*
D03*
X422427D02*
D03*
X424395D02*
D03*
X426364D02*
D03*
X436206D02*
D03*
X438175D02*
D03*
X440143D02*
D03*
X442112D02*
D03*
X444080D02*
D03*
X446049D02*
D03*
X448017D02*
D03*
X449986D02*
D03*
X451954D02*
D03*
X453923D02*
D03*
X455891D02*
D03*
X457860D02*
D03*
X459828D02*
D03*
X461797D02*
D03*
X463765D02*
D03*
X465734D02*
D03*
X467702D02*
D03*
X469671D02*
D03*
X471639D02*
D03*
X473608D02*
D03*
X475576D02*
D03*
X477545D02*
D03*
X479513D02*
D03*
X481482D02*
D03*
X483450D02*
D03*
X485419D02*
D03*
X487387D02*
D03*
X489356D02*
D03*
D214*
X413175Y40205D02*
D03*
X494671D02*
D03*
D215*
X63260Y135110D02*
D03*
X63221Y105681D02*
D03*
D216*
X57315Y131271D02*
D03*
Y133830D02*
D03*
Y136389D02*
D03*
Y138948D02*
D03*
X69205Y131271D02*
D03*
Y133830D02*
D03*
Y136389D02*
D03*
Y138948D02*
D03*
X57276Y101842D02*
D03*
Y104401D02*
D03*
Y106960D02*
D03*
Y109519D02*
D03*
X69165Y101842D02*
D03*
Y104401D02*
D03*
Y106960D02*
D03*
Y109519D02*
D03*
D217*
X162106Y76595D02*
D03*
Y71595D02*
D03*
Y66594D02*
D03*
Y61594D02*
D03*
X140650Y76595D02*
D03*
Y71595D02*
D03*
Y66594D02*
D03*
Y61594D02*
D03*
D218*
X201906Y119519D02*
D03*
X206906D02*
D03*
X211906D02*
D03*
X216906D02*
D03*
X201906Y101015D02*
D03*
X206906D02*
D03*
X211906D02*
D03*
X216906D02*
D03*
D219*
X98000Y47914D02*
D03*
X73591D02*
D03*
D220*
X170472Y72835D02*
D03*
Y65354D02*
D03*
D221*
X131299Y104724D02*
D03*
Y107283D02*
D03*
Y109843D02*
D03*
Y112401D02*
D03*
Y114961D02*
D03*
Y117520D02*
D03*
Y120079D02*
D03*
Y122638D02*
D03*
Y125197D02*
D03*
Y127756D02*
D03*
Y130315D02*
D03*
X162008D02*
D03*
Y127756D02*
D03*
Y125197D02*
D03*
Y122638D02*
D03*
Y120079D02*
D03*
Y117520D02*
D03*
Y114961D02*
D03*
Y112401D02*
D03*
Y109843D02*
D03*
Y107283D02*
D03*
Y104724D02*
D03*
D222*
X133858Y132874D02*
D03*
X136417D02*
D03*
X138976D02*
D03*
X141535D02*
D03*
X144094D02*
D03*
X146653D02*
D03*
X149213D02*
D03*
X151771D02*
D03*
X154331D02*
D03*
X156890D02*
D03*
X159449D02*
D03*
Y102165D02*
D03*
X156890D02*
D03*
X154331D02*
D03*
X151771D02*
D03*
X149213D02*
D03*
X146653D02*
D03*
X144094D02*
D03*
X141535D02*
D03*
X138976D02*
D03*
X136417D02*
D03*
X133858D02*
D03*
D223*
X146653Y117520D02*
D03*
D224*
X290087Y13232D02*
D03*
X275913D02*
D03*
X290087Y7523D02*
D03*
X275913D02*
D03*
X234968Y7523D02*
D03*
X249141D02*
D03*
X234968Y13232D02*
D03*
X249141D02*
D03*
D225*
X273317Y228253D02*
D03*
X281191D02*
D03*
X263475D02*
D03*
X291034D02*
D03*
X348263Y228252D02*
D03*
X356137D02*
D03*
X338421D02*
D03*
X365980D02*
D03*
D226*
X307274Y220379D02*
D03*
X247235D02*
D03*
X307274Y196363D02*
D03*
X247235D02*
D03*
X382220Y220378D02*
D03*
X322180D02*
D03*
X382220Y196362D02*
D03*
X322180D02*
D03*
D227*
X188836Y114488D02*
D03*
Y130236D02*
D03*
X179387D02*
D03*
Y114488D02*
D03*
M02*
