M48
;Layer_Color=9474304
;FILE_FORMAT=2:5
INCH,LZ
;TYPE=PLATED
T1F00S00C0.00787
T5F00S00C0.04331
T6F00S00C0.06299
T7F00S00C0.07874
T8F00S00C0.08661
T9F00S00C0.11811
T10F00S00C0.12598
;TYPE=NON_PLATED
T11F00S00C0.01181
T12F00S00C0.02756
T13F00S00C0.03150
T14F00S00C0.05906
T15F00S00C0.14567
%
T01
X0460728Y0031657
X0466658Y0031764
Y0043307
X0460659Y0042636
X0457185Y0042606
X0473744Y0043307
X0483193
X0486451Y0042512
X0488372Y0031965
X0488Y0055323
X0485529Y0057202
X0480807Y005523
X0476082Y0055205
X04707Y0055254
X0470655Y005888
X04706Y0062136
X04785Y0058323
X0479626Y0071823
X0485205Y0072322
X0489497Y0072323
X0487212Y0075073
X0481988Y0075685
X0477263Y0075686
X0474877Y0087914
X046779
X0482Y0087844
X0486711Y0090323
X0489215Y0088
X0456Y0072658
X0483388Y014094
X0502953Y0148616
Y0152946
X0453617Y0087914
X0446531
X0432357
X0418184
X0411098
X0396924
X0389838
X0382751
X0375664
X0368578
X0361491
X0357972Y0087844
X0354405Y0087914
X0347318
X0340231
X0333145
X0326058
X0318972
X0311885
X0302851Y0088954
X030246Y0074779
X0307
X0309942
X0321173
X0324115
X0335346
X0338288
X0356791Y007609
X0350886Y0056916
X0353272Y0043307
X0346185
X0338879Y0041585
X0332012Y0043307
X0328531Y0034348
X03258Y0024805
X0339545Y0025936
X032703Y0009802
X0357774Y0012037
X0384357Y0025381
X0387149
X0390015Y0025344
X039474
X0399464
X0404189
X0408913
X0389637Y0034104
X0383Y0033047
X03783Y0032969
X03782Y0037236
X0381391Y0044071
X0367445Y0043307
X0395555Y0062617
X039339Y0065323
X0405071Y006688
X0409008Y0057018
X042409Y0057343
X0431176
X0437365Y0059603
X0441Y0057565
Y0061913
X0445332Y0059518
X0445374Y0043504
X045246
X0438287Y0042323
X04308Y0041962
X042742
X0420458Y0042095
X0434671Y0032465
X0449034Y0031542
X0438077Y0006257
X0447736Y0074836
X0450098
X0414625Y0071423
X0317839Y0043307
X0314Y004141
Y003742
X0310752Y0043307
X0303666
X0301279Y0056069
X0299453Y0127323
X0302057Y0134279
X0314911Y0152837
X0333Y0150308
X0288Y0144902
X0284063Y0144723
X0272369Y0147023
X0268708Y0146912
X0266Y0144147
X0268779Y0153504
X0275Y0133678
X0273078Y0121107
X0275554Y0119095
X0271Y0104723
X02679Y0104923
X0259941Y0102318
X0264665Y0094088
X0267027Y0091607
X02788Y0090723
X0283563Y0087685
X0287Y0094088
X02857Y0105746
X0285925Y0074814
X0276476Y0075819
X0269389
X0262303
X0255216
X024813
X02426Y0075253
X0228
X022704Y0070836
X0226863Y0063802
Y0058823
Y0053823
Y0048823
Y0043823
Y0038823
X0237026Y0042836
X0240551Y0035516
X0244586Y0035468
X0248551Y0035516
X02568Y0034302
X02646Y002934
X02705Y0030536
X0281191Y0035933
X0282882Y0018842
X0294752Y0007292
X02623Y0012066
X02532Y0023214
X0252595Y0056749
X0249339Y0057133
X0239Y0055301
X0263469Y0055205
X0268209Y0057018
X027874Y0056674
X0284744Y0056109
X02897Y0050162
X02955Y0050323
X0294Y0079836
X0298Y0085402
X0296752Y0134091
X0252854Y0091142
X0244586Y0088171
X0229402Y0088836
X022704
X0223Y0078355
X0216867Y0094336
X0223103Y0101451
X0204Y0090723
Y0086662
X0197221Y0083521
X0184112Y0076836
X0190563Y0056109
X0188Y0050323
X0175165Y0053836
X0175943Y0043307
X0176245Y0038616
X0158Y0040836
X01546Y0050323
X0149713Y0050162
X0160452Y0057565
X015689Y008517
X0147521Y0093323
X0144158
X0144488Y0106693
Y0111023
X0148819
Y0106693
X0153149
Y0111023
X015748
Y0106693
Y0115354
Y0119685
X0153149
Y0115354
X0148819
Y0119685
X0144488
Y0115354
Y0124016
X0148819
X0153149
X015748
Y0128347
X0153149
X0148819
X0144488
X014274Y0136823
X0154447
X0157103Y0138927
X0159449Y0136772
X0165492Y0130315
X0165945Y0122638
X0171Y0118117
Y0114592
X0169795Y0107323
X0175377Y0101083
X0184112Y0107599
X0195Y0105746
X0195Y0110291
X019888Y011463
X0201262Y0130603
X0187077Y013935
X0182097Y0139315
X0174742Y0132288
X0174Y0125836
X0151062Y0149727
X0142952Y0149257
X0210968Y0152336
X0211655Y004382
X0163Y0023836
X0159039Y0023951
X014556Y0027483
X0139441Y0027877
X0142319Y0023642
X0125987Y0030351
X0126878Y0037154
X0126401Y0042229
X0128636Y0057921
X0133852Y0069193
X0130535Y0072534
X0125487Y0104923
X0122Y0111458
X0123Y0114961
X012265Y0123022
X0125987Y0122823
X0126Y0133424
X012265Y0130323
X0135827Y0128347
X0140157
Y0124016
X0135827
Y0119685
Y0115354
X0140157
Y0119685
Y0111023
Y0106693
X0135827
Y0111023
X0113855Y0118803
X0115636Y0145
X0115563Y0150701
X0127287Y0149516
X01312Y0149496
X0135316Y0149484
X0139185Y0149472
X0102635Y0150701
X0102708Y0145
X0085Y0146004
X0077886Y0136587
X0077884Y0133219
X0085Y0127832
X0085Y011741
X0077676Y0107424
X0077697Y0103975
X0085Y0098785
X0089002Y0085914
X0087Y0077836
X0084Y0080836
X007408Y0085914
X006548Y0068836
X0071134Y0063182
X0089002Y0065836
X0057276Y0098724
X0044285Y0106354
X0037Y0104723
X00446Y012
X0057315Y0128152
X0061467Y0124836
X0067Y0112571
X0066764Y0142236
X0072199Y0153323
X0045173Y0149583
X0037605Y0154571
Y0142885
X0049668Y0157171
X0047244Y0162198
X0103165Y0165616
Y0169765
Y0173913
X0102414Y0181295
X0102369Y0185281
X0106354Y0185327
Y0189336
X01064Y0181341
X0114406Y0173913
Y0169765
Y0165616
X0127882Y0171019
X0128Y0177669
X0132Y0177712
X0136082Y0177836
X0136161Y0174724
X0136177Y0171019
X0141732Y0161565
X0127064Y0156323
X0124082Y0177926
X0108717Y0207444
X0106354Y0219382
X0099Y0218836
X0092313Y0222867
X0105Y0230237
X0109Y0231836
X0114
X0119
X0125Y0222867
X0147521Y0194482
Y0190933
Y0187384
Y0183835
X01515Y0173435
X0161Y0170523
X0160513Y0161065
X0173Y0158835
X019Y0161065
X0194278Y0167062
X0197362Y0156117
X0186Y0179835
X0182097
X0182Y0187836
X0186
X0188Y0183835
X0171
Y0187836
X0174Y0192835
X0178
X0225Y0199262
X0228628Y0202162
X0235584Y0205907
X0236Y0231123
X0218754Y0217372
X0263469Y0222323
X0273563Y0234623
X0281191Y0234798
X0288Y0235323
X0292914Y0217323
X0298265Y0198506
X0293292Y0176664
X0291622Y0178334
X028878Y0165895
Y0161565
X0284449
X0280118
Y0165895
X0284449
Y0157234
X0280118
X028878
X0268674Y0156672
X0269687Y0163533
X0269023Y0167062
X0264692Y0180973
X0269879Y0205492
X0148128Y0158458
X0301181Y0175004
X03091Y017249
X0308816Y0168723
X0323Y0154835
X0327
X0333Y0158835
X0345098Y0205492
X0338414Y0222322
X0348263Y0234323
X0356Y023439
X0362697Y023552
X0311Y0229962
X0310007Y0205634
X0302344Y0203
X0412456Y0198
X041637Y0200912
X042348Y0205147
X0422261Y0228
X0406649Y0217513
X0433614Y0169482
X0441561Y0172836
X0446055Y016744
X0445866Y0162599
X0445443Y0158993
X0448418Y0160697
Y0164758
X044835Y0156117
X0439609Y0155478
X0503067Y0157277
X0502953Y0161608
X0503067Y0165939
X0502953Y0170269
Y01746
X0502902Y0178931
X0482324Y0225406
X0465686Y0224709
T05
X0495964Y006561
X0414553Y0057921
T06
X0493293Y0057921
X0232972Y006561
X0024848Y0077794
Y0093148
Y0108503
Y0123857
Y0139211
Y0154566
X0013037Y0147873
Y0132125
Y0116377
Y0100629
Y0084881
Y0069133
Y0163621
Y0179369
X0024848Y0185275
Y016992
T07
X0038627Y0054172
Y0200629
T08
X0024848Y0050235
Y0205747
T09
X0011068Y0054172
Y0200629
T10
X0489717Y001378
X0096016
Y0242126
X0391291Y0242126
T11
X0513832Y0063696
X0513831Y0065761
X051383Y0067826
X0513831Y0069791
Y0071872
Y0073953
X0449657Y-0000051
X0447576
X0445495
X044353Y-000005
X0441466Y-0000051
X0439401Y-0000053
X0148725Y-0000051
X0146644
X0144563
X0142598Y-000005
X0140533Y-0000051
X0138469Y-0000053
X-0000053Y0054369
X-0000051Y0056434
X-000005Y0058499
X-0000051Y0060463
Y0062544
Y0064625
X-0000053Y0191426
X-0000051Y0193491
X-000005Y0195556
X-0000051Y019752
Y0199601
Y0201682
X0138319Y0255906
X01404
X0142481
X0144446Y0255904
X0146511Y0255906
X0148575Y0255907
X0439386Y0255958
X044145Y0255957
X0443515Y0255956
X0445479Y0255957
X0447561
X0449642
X0513831Y0192953
Y0190872
Y0188791
X051383Y0186826
X0513831Y0184761
X0513832Y0182696
T12
X0242055Y0006834
Y001392
X0283Y0013921
Y0006834
T13
X0493227Y020828
Y0227965
T14
X0267609Y0217623
X02869
X0342554Y0217622
X0361846
T15
X0453957Y0214942
M30
